%TF.GenerationSoftware,KiCad,Pcbnew,7.0.9-7.0.9~ubuntu22.04.1*%
%TF.CreationDate,2025-08-29T15:08:22+03:00*%
%TF.ProjectId,ESP32-C5-EVB_Rev_A,45535033-322d-4433-952d-4556425f5265,A*%
%TF.SameCoordinates,PX3938700PY9896800*%
%TF.FileFunction,Soldermask,Bot*%
%TF.FilePolarity,Negative*%
%FSLAX46Y46*%
G04 Gerber Fmt 4.6, Leading zero omitted, Abs format (unit mm)*
G04 Created by KiCad (PCBNEW 7.0.9-7.0.9~ubuntu22.04.1) date 2025-08-29 15:08:22*
%MOMM*%
%LPD*%
G01*
G04 APERTURE LIST*
G04 Aperture macros list*
%AMRoundRect*
0 Rectangle with rounded corners*
0 $1 Rounding radius*
0 $2 $3 $4 $5 $6 $7 $8 $9 X,Y pos of 4 corners*
0 Add a 4 corners polygon primitive as box body*
4,1,4,$2,$3,$4,$5,$6,$7,$8,$9,$2,$3,0*
0 Add four circle primitives for the rounded corners*
1,1,$1+$1,$2,$3*
1,1,$1+$1,$4,$5*
1,1,$1+$1,$6,$7*
1,1,$1+$1,$8,$9*
0 Add four rect primitives between the rounded corners*
20,1,$1+$1,$2,$3,$4,$5,0*
20,1,$1+$1,$4,$5,$6,$7,0*
20,1,$1+$1,$6,$7,$8,$9,0*
20,1,$1+$1,$8,$9,$2,$3,0*%
G04 Aperture macros list end*
%ADD10O,2.101600X1.401600*%
%ADD11O,2.301600X1.301600*%
%ADD12C,0.701600*%
%ADD13C,1.501600*%
%ADD14RoundRect,0.050800X-0.700000X0.700000X-0.700000X-0.700000X0.700000X-0.700000X0.700000X0.700000X0*%
%ADD15C,1.301600*%
%ADD16O,1.500000X7.000000*%
%ADD17O,7.500000X1.500000*%
%ADD18C,2.641600*%
%ADD19RoundRect,0.050800X0.889000X-0.889000X0.889000X0.889000X-0.889000X0.889000X-0.889000X-0.889000X0*%
%ADD20C,1.879600*%
%ADD21C,3.401600*%
%ADD22C,1.901600*%
%ADD23RoundRect,0.050800X-0.700000X-0.700000X0.700000X-0.700000X0.700000X0.700000X-0.700000X0.700000X0*%
%ADD24RoundRect,0.050800X-1.524000X-1.524000X1.524000X-1.524000X1.524000X1.524000X-1.524000X1.524000X0*%
%ADD25C,3.149600*%
G04 APERTURE END LIST*
D10*
%TO.C,USB-UART1*%
X76850000Y29680000D03*
X76850000Y38320000D03*
D11*
X72670000Y29680000D03*
X72670000Y38320000D03*
D12*
X73170000Y31110000D03*
X73170000Y36890000D03*
%TD*%
D13*
%TO.C,PWR1*%
X77538220Y8999240D03*
D14*
X77535680Y11028700D03*
%TD*%
D15*
%TO.C,UEXT1*%
X34190000Y63500000D03*
X41810000Y63500000D03*
%TD*%
D16*
%TO.C,RELAY2*%
X27500000Y28500000D03*
X33500000Y28500000D03*
D17*
X30500000Y31250000D03*
D18*
X24500000Y26300000D03*
X36500000Y26300000D03*
X30500000Y28300000D03*
X36500000Y14300000D03*
X24500000Y14300000D03*
%TD*%
D19*
%TO.C,EXT1*%
X1500000Y35800000D03*
D20*
X1500000Y38340000D03*
X1500000Y40880000D03*
X1500000Y43420000D03*
X1500000Y45960000D03*
X1500000Y48500000D03*
X1500000Y51040000D03*
X1500000Y53580000D03*
X1500000Y56120000D03*
%TD*%
D21*
%TO.C,MH2*%
X3500000Y3500000D03*
%TD*%
D22*
%TO.C,U4*%
X68830000Y53260000D03*
%TD*%
D21*
%TO.C,MH4*%
X52000000Y66500000D03*
%TD*%
D18*
%TO.C,RELAY1*%
X4500000Y14300000D03*
X16500000Y14300000D03*
X10500000Y28300000D03*
X16500000Y26300000D03*
X4500000Y26300000D03*
D17*
X10500000Y31250000D03*
D16*
X13500000Y28500000D03*
X7500000Y28500000D03*
%TD*%
D21*
%TO.C,MH3*%
X76500000Y3500000D03*
%TD*%
D23*
%TO.C,BAT1*%
X22971300Y67535680D03*
D13*
X25000760Y67538220D03*
%TD*%
D24*
%TO.C,IN2*%
X56500000Y4500000D03*
D25*
X61500000Y4500000D03*
%TD*%
D21*
%TO.C,MH1*%
X3500000Y66500000D03*
%TD*%
D12*
%TO.C,USB-JTAG1*%
X73170000Y22890000D03*
X73170000Y17110000D03*
D11*
X72670000Y24320000D03*
X72670000Y15680000D03*
D10*
X76850000Y24320000D03*
X76850000Y15680000D03*
%TD*%
D25*
%TO.C,IN1*%
X50500000Y4500000D03*
D24*
X45500000Y4500000D03*
%TD*%
%TO.C,CON1*%
X10500000Y4500000D03*
D25*
X15500000Y4500000D03*
X20500000Y4500000D03*
%TD*%
D24*
%TO.C,CON2*%
X27000000Y4500000D03*
D25*
X32000000Y4500000D03*
X37000000Y4500000D03*
%TD*%
M02*
