%TF.GenerationSoftware,KiCad,Pcbnew,7.0.9-7.0.9~ubuntu22.04.1*%
%TF.CreationDate,2025-08-29T15:08:22+03:00*%
%TF.ProjectId,ESP32-C5-EVB_Rev_A,45535033-322d-4433-952d-4556425f5265,A*%
%TF.SameCoordinates,PX3938700PY9896800*%
%TF.FileFunction,Legend,Bot*%
%TF.FilePolarity,Positive*%
%FSLAX46Y46*%
G04 Gerber Fmt 4.6, Leading zero omitted, Abs format (unit mm)*
G04 Created by KiCad (PCBNEW 7.0.9-7.0.9~ubuntu22.04.1) date 2025-08-29 15:08:22*
%MOMM*%
%LPD*%
G01*
G04 APERTURE LIST*
%ADD10C,0.254000*%
%ADD11C,0.500000*%
%ADD12C,0.350000*%
%ADD13C,0.508000*%
%ADD14C,0.150000*%
%ADD15C,0.127000*%
%ADD16C,0.200000*%
%ADD17C,0.370000*%
%ADD18C,1.000000*%
%ADD19C,0.420000*%
%ADD20C,0.400000*%
%ADD21C,0.380000*%
%ADD22C,0.700000*%
%ADD23C,0.100000*%
%ADD24C,0.300000*%
G04 APERTURE END LIST*
D10*
G36*
X32576519Y56395126D02*
G01*
X32595758Y56375887D01*
X32621513Y56324377D01*
X32621513Y56094051D01*
X32595758Y56042541D01*
X32576520Y56023304D01*
X32525009Y55997548D01*
X32439826Y55997548D01*
X32388314Y56023304D01*
X32369077Y56042541D01*
X32343322Y56094051D01*
X32343322Y56324377D01*
X32369077Y56375887D01*
X32388316Y56395126D01*
X32439826Y56420881D01*
X32525009Y56420881D01*
X32576519Y56395126D01*
G37*
G36*
X35653472Y56404840D02*
G01*
X35669513Y56372758D01*
X35669513Y56364130D01*
X35458662Y56406300D01*
X35487826Y56420881D01*
X35621390Y56420881D01*
X35653472Y56404840D01*
G37*
G36*
X38914424Y56395126D02*
G01*
X38933663Y56375887D01*
X38959418Y56324377D01*
X38959418Y56094051D01*
X38933663Y56042541D01*
X38914425Y56023304D01*
X38862914Y55997548D01*
X38777731Y55997548D01*
X38726219Y56023304D01*
X38706982Y56042541D01*
X38681227Y56094051D01*
X38681227Y56324377D01*
X38706982Y56375887D01*
X38726221Y56395126D01*
X38777731Y56420881D01*
X38862914Y56420881D01*
X38914424Y56395126D01*
G37*
G36*
X43079009Y55598405D02*
G01*
X30637894Y55598405D01*
X30637894Y55870548D01*
X30783037Y55870548D01*
X30803198Y55801887D01*
X30857279Y55755025D01*
X30928111Y55744841D01*
X30993204Y55774568D01*
X31031893Y55834768D01*
X31037037Y55870548D01*
X31037037Y56372758D01*
X31053077Y56404840D01*
X31085160Y56420881D01*
X31170342Y56420881D01*
X31202424Y56404840D01*
X31218465Y56372758D01*
X31218465Y55870548D01*
X31238626Y55801887D01*
X31292707Y55755025D01*
X31363539Y55744841D01*
X31428632Y55774568D01*
X31467321Y55834768D01*
X31472465Y55870548D01*
X31472465Y56372758D01*
X31488506Y56404840D01*
X31520588Y56420881D01*
X31605771Y56420881D01*
X31653894Y56396820D01*
X31653894Y55870548D01*
X31674055Y55801887D01*
X31728136Y55755025D01*
X31798968Y55744841D01*
X31864061Y55774568D01*
X31902750Y55834768D01*
X31907894Y55870548D01*
X31907894Y56064071D01*
X32089322Y56064071D01*
X32092565Y56053026D01*
X32091329Y56041578D01*
X32102730Y56007275D01*
X32151111Y55910513D01*
X32152731Y55908771D01*
X32153238Y55906444D01*
X32174900Y55877506D01*
X32223281Y55829125D01*
X32225371Y55827984D01*
X32226587Y55825937D01*
X32256289Y55805335D01*
X32353051Y55756955D01*
X32364381Y55754917D01*
X32374066Y55748692D01*
X32409846Y55743548D01*
X32554989Y55743548D01*
X32566033Y55746792D01*
X32577481Y55745555D01*
X32611784Y55756955D01*
X32708546Y55805335D01*
X32710289Y55806957D01*
X32712616Y55807463D01*
X32741554Y55829125D01*
X32789935Y55877506D01*
X32791076Y55879596D01*
X32793122Y55880811D01*
X32813724Y55910513D01*
X32862105Y56007275D01*
X32864143Y56018605D01*
X32870369Y56028291D01*
X32875513Y56064071D01*
X32875513Y56354357D01*
X32872269Y56365403D01*
X32873506Y56376850D01*
X32862105Y56411153D01*
X32820169Y56495025D01*
X33008639Y56495025D01*
X33031207Y56427116D01*
X33086906Y56382190D01*
X33158053Y56374507D01*
X33192356Y56385908D01*
X33262302Y56420881D01*
X33395866Y56420881D01*
X33447376Y56395126D01*
X33466615Y56375887D01*
X33492370Y56324377D01*
X33492370Y56094051D01*
X33466615Y56042541D01*
X33447377Y56023304D01*
X33395866Y55997548D01*
X33262302Y55997548D01*
X33192355Y56032521D01*
X33121927Y56045194D01*
X33055826Y56017779D01*
X33015041Y55958979D01*
X33012520Y55887464D01*
X33049063Y55825937D01*
X33078765Y55805335D01*
X33175527Y55756955D01*
X33186857Y55754917D01*
X33196542Y55748692D01*
X33232322Y55743548D01*
X33425846Y55743548D01*
X33436890Y55746792D01*
X33448338Y55745555D01*
X33482641Y55756955D01*
X33579403Y55805335D01*
X33581146Y55806957D01*
X33583473Y55807463D01*
X33612411Y55829125D01*
X33660792Y55877506D01*
X33661933Y55879596D01*
X33663979Y55880811D01*
X33684581Y55910513D01*
X33693318Y55927987D01*
X33879742Y55927987D01*
X33885494Y55901543D01*
X33887425Y55874546D01*
X33892981Y55867123D01*
X33894953Y55858062D01*
X33916616Y55829125D01*
X33964997Y55780745D01*
X33973134Y55776302D01*
X33978690Y55768880D01*
X33991615Y55764060D01*
X34002041Y55755025D01*
X34015697Y55753062D01*
X34027804Y55746451D01*
X34037050Y55747113D01*
X34045738Y55743872D01*
X34059218Y55746805D01*
X34072873Y55744841D01*
X34085421Y55750572D01*
X34099182Y55751556D01*
X34106602Y55757112D01*
X34115663Y55759082D01*
X34133820Y55772675D01*
X34137966Y55774568D01*
X34139464Y55776900D01*
X34144601Y55780745D01*
X34192981Y55829124D01*
X34197425Y55837264D01*
X34204848Y55842820D01*
X34214305Y55868176D01*
X34222163Y55882566D01*
X34315416Y55882566D01*
X34328989Y55812305D01*
X34378393Y55760536D01*
X34447943Y55743695D01*
X34515558Y55767128D01*
X34541708Y55792085D01*
X34707941Y56003655D01*
X34874174Y55792085D01*
X34932448Y55750551D01*
X35003925Y55747115D01*
X35065913Y55782869D01*
X35098731Y55846460D01*
X35091960Y55917699D01*
X35073899Y55949012D01*
X34869453Y56209215D01*
X34945480Y56305976D01*
X35185703Y56305976D01*
X35194846Y56274837D01*
X35202276Y56243247D01*
X35204854Y56240754D01*
X35205864Y56237315D01*
X35230381Y56216070D01*
X35253720Y56193503D01*
X35258293Y56191885D01*
X35259945Y56190453D01*
X35263973Y56189874D01*
X35287796Y56181442D01*
X35669513Y56105099D01*
X35669513Y56045670D01*
X35653472Y56013590D01*
X35621390Y55997548D01*
X35487826Y55997548D01*
X35417879Y56032521D01*
X35347451Y56045194D01*
X35281350Y56017779D01*
X35240565Y55958979D01*
X35238044Y55887464D01*
X35274587Y55825937D01*
X35304289Y55805335D01*
X35401051Y55756955D01*
X35412381Y55754917D01*
X35422066Y55748692D01*
X35457846Y55743548D01*
X35651370Y55743548D01*
X35662414Y55746792D01*
X35673862Y55745555D01*
X35708165Y55756955D01*
X35804927Y55805335D01*
X35821573Y55820820D01*
X35841122Y55832430D01*
X35853972Y55850957D01*
X35857324Y55854074D01*
X35858018Y55856790D01*
X35861724Y55862132D01*
X35865932Y55870548D01*
X36104942Y55870548D01*
X36125103Y55801887D01*
X36179184Y55755025D01*
X36250016Y55744841D01*
X36315109Y55774568D01*
X36353798Y55834768D01*
X36358942Y55870548D01*
X36358942Y56372758D01*
X36374982Y56404840D01*
X36407065Y56420881D01*
X36492247Y56420881D01*
X36524329Y56404840D01*
X36540370Y56372758D01*
X36540370Y55870548D01*
X36560531Y55801887D01*
X36614612Y55755025D01*
X36685444Y55744841D01*
X36750537Y55774568D01*
X36789226Y55834768D01*
X36794370Y55870548D01*
X36794370Y56372758D01*
X36810411Y56404840D01*
X36842493Y56420881D01*
X36927676Y56420881D01*
X36975799Y56396820D01*
X36975799Y55870548D01*
X36995960Y55801887D01*
X37050041Y55755025D01*
X37120873Y55744841D01*
X37185966Y55774568D01*
X37224655Y55834768D01*
X37229799Y55870548D01*
X37229799Y56547881D01*
X37209638Y56616542D01*
X37155557Y56663404D01*
X37084725Y56673588D01*
X37035334Y56651032D01*
X37014452Y56661473D01*
X37003122Y56663512D01*
X36993436Y56669737D01*
X36957656Y56674881D01*
X36812513Y56674881D01*
X36801467Y56671638D01*
X36790020Y56672874D01*
X36755717Y56661473D01*
X36667370Y56617300D01*
X36579023Y56661473D01*
X36567693Y56663512D01*
X36558007Y56669737D01*
X36522227Y56674881D01*
X36377084Y56674881D01*
X36366036Y56671638D01*
X36354590Y56672873D01*
X36320287Y56661473D01*
X36223526Y56613092D01*
X36206879Y56597607D01*
X36187333Y56585998D01*
X36174481Y56567470D01*
X36171131Y56564353D01*
X36170436Y56561639D01*
X36166731Y56556296D01*
X36118350Y56459534D01*
X36116311Y56448205D01*
X36110086Y56438518D01*
X36104942Y56402738D01*
X36104942Y55870548D01*
X35865932Y55870548D01*
X35910105Y55958894D01*
X35912143Y55970224D01*
X35918369Y55979910D01*
X35923513Y56015690D01*
X35923513Y56402738D01*
X35920269Y56413784D01*
X35921506Y56425231D01*
X35910105Y56459534D01*
X35861724Y56556296D01*
X35846239Y56572943D01*
X35834630Y56592490D01*
X35816103Y56605341D01*
X35812986Y56608692D01*
X35810270Y56609387D01*
X35804928Y56613092D01*
X35708166Y56661473D01*
X35696836Y56663512D01*
X35687150Y56669737D01*
X35651370Y56674881D01*
X35457846Y56674881D01*
X35446800Y56671638D01*
X35435353Y56672874D01*
X35401050Y56661473D01*
X35304288Y56613092D01*
X35287641Y56597608D01*
X35268094Y56585998D01*
X35255243Y56567472D01*
X35251892Y56564354D01*
X35251197Y56561639D01*
X35247492Y56556296D01*
X35199111Y56459534D01*
X35197072Y56448205D01*
X35190847Y56438518D01*
X35185703Y56402738D01*
X35185703Y56305976D01*
X34945480Y56305976D01*
X35073899Y56469417D01*
X35100466Y56535863D01*
X35086894Y56606123D01*
X35037489Y56657893D01*
X34967940Y56674734D01*
X34900325Y56651300D01*
X34874174Y56626344D01*
X34707941Y56414775D01*
X34541708Y56626344D01*
X34483435Y56667878D01*
X34411958Y56671314D01*
X34349970Y56635560D01*
X34317152Y56571969D01*
X34323923Y56500730D01*
X34341984Y56469418D01*
X34546429Y56209215D01*
X34341984Y55949011D01*
X34315416Y55882566D01*
X34222163Y55882566D01*
X34227277Y55891931D01*
X34226615Y55901181D01*
X34229856Y55909868D01*
X34224103Y55936313D01*
X34222173Y55963308D01*
X34216616Y55970731D01*
X34214645Y55979793D01*
X34192983Y56008731D01*
X34144602Y56057112D01*
X34136461Y56061557D01*
X34130907Y56068977D01*
X34117983Y56073798D01*
X34107557Y56082832D01*
X34093902Y56084796D01*
X34081795Y56091406D01*
X34072546Y56090745D01*
X34063859Y56093985D01*
X34050379Y56091053D01*
X34036725Y56093016D01*
X34024178Y56087287D01*
X34010417Y56086302D01*
X34002993Y56080745D01*
X33993934Y56078774D01*
X33975775Y56065182D01*
X33971632Y56063289D01*
X33970134Y56060959D01*
X33964996Y56057112D01*
X33916615Y56008731D01*
X33912170Y56000591D01*
X33904749Y55995035D01*
X33895292Y55969681D01*
X33882321Y55945924D01*
X33882982Y55936675D01*
X33879742Y55927987D01*
X33693318Y55927987D01*
X33732962Y56007275D01*
X33735000Y56018605D01*
X33741226Y56028291D01*
X33746370Y56064071D01*
X33746370Y56354357D01*
X33743126Y56365403D01*
X33744363Y56376850D01*
X33732962Y56411153D01*
X33684581Y56507915D01*
X33682960Y56509658D01*
X33682454Y56511984D01*
X33660792Y56540922D01*
X33612411Y56589303D01*
X33610321Y56590445D01*
X33609106Y56592490D01*
X33579404Y56613092D01*
X33482642Y56661473D01*
X33471312Y56663512D01*
X33461626Y56669737D01*
X33425846Y56674881D01*
X33232322Y56674881D01*
X33221276Y56671638D01*
X33209829Y56672874D01*
X33175526Y56661473D01*
X33078764Y56613092D01*
X33026368Y56564354D01*
X33008639Y56495025D01*
X32820169Y56495025D01*
X32813724Y56507915D01*
X32812103Y56509658D01*
X32811597Y56511984D01*
X32789935Y56540922D01*
X32741554Y56589303D01*
X32739464Y56590445D01*
X32738249Y56592490D01*
X32708547Y56613092D01*
X32611785Y56661473D01*
X32600455Y56663512D01*
X32590769Y56669737D01*
X32554989Y56674881D01*
X32409846Y56674881D01*
X32398800Y56671638D01*
X32387353Y56672874D01*
X32353050Y56661473D01*
X32256288Y56613092D01*
X32254545Y56611472D01*
X32252219Y56610965D01*
X32223281Y56589303D01*
X32174900Y56540922D01*
X32173758Y56538833D01*
X32171713Y56537617D01*
X32151111Y56507915D01*
X32102730Y56411153D01*
X32100691Y56399824D01*
X32094466Y56390137D01*
X32089322Y56354357D01*
X32089322Y56064071D01*
X31907894Y56064071D01*
X31907894Y56547881D01*
X31887733Y56616542D01*
X31833652Y56663404D01*
X31762820Y56673588D01*
X31713429Y56651032D01*
X31692547Y56661473D01*
X31681217Y56663512D01*
X31671531Y56669737D01*
X31635751Y56674881D01*
X31490608Y56674881D01*
X31479562Y56671638D01*
X31468115Y56672874D01*
X31433812Y56661473D01*
X31345465Y56617300D01*
X31257118Y56661473D01*
X31245788Y56663512D01*
X31236102Y56669737D01*
X31200322Y56674881D01*
X31055179Y56674881D01*
X31044131Y56671638D01*
X31032685Y56672873D01*
X30998382Y56661473D01*
X30901621Y56613092D01*
X30884974Y56597607D01*
X30865428Y56585998D01*
X30852576Y56567470D01*
X30849226Y56564353D01*
X30848531Y56561639D01*
X30844826Y56556296D01*
X30796445Y56459534D01*
X30794406Y56448205D01*
X30788181Y56438518D01*
X30783037Y56402738D01*
X30783037Y55870548D01*
X30637894Y55870548D01*
X30637894Y56847227D01*
X37411552Y56847227D01*
X37417304Y56820783D01*
X37419235Y56793785D01*
X37424792Y56786362D01*
X37426763Y56777302D01*
X37448425Y56748364D01*
X37496806Y56699983D01*
X37504944Y56695539D01*
X37510501Y56688117D01*
X37523426Y56683297D01*
X37533851Y56674263D01*
X37547505Y56672300D01*
X37555798Y56667772D01*
X37503442Y56643861D01*
X37464753Y56583661D01*
X37459609Y56547881D01*
X37459609Y55870548D01*
X37479770Y55801887D01*
X37533851Y55755025D01*
X37604683Y55744841D01*
X37669776Y55774568D01*
X37708465Y55834768D01*
X37712966Y55866074D01*
X37846735Y55866074D01*
X37869303Y55798165D01*
X37925001Y55753238D01*
X37996148Y55745555D01*
X38030451Y55756955D01*
X38127213Y55805335D01*
X38143859Y55820820D01*
X38163408Y55832430D01*
X38176258Y55850957D01*
X38179610Y55854074D01*
X38180304Y55856790D01*
X38184010Y55862132D01*
X38232391Y55958894D01*
X38234429Y55970224D01*
X38240655Y55979910D01*
X38245799Y56015690D01*
X38245799Y56064071D01*
X38427227Y56064071D01*
X38430470Y56053026D01*
X38429234Y56041578D01*
X38440635Y56007275D01*
X38489016Y55910513D01*
X38490636Y55908771D01*
X38491143Y55906444D01*
X38512805Y55877506D01*
X38561186Y55829125D01*
X38563276Y55827984D01*
X38564492Y55825937D01*
X38594194Y55805335D01*
X38690956Y55756955D01*
X38702286Y55754917D01*
X38711971Y55748692D01*
X38747751Y55743548D01*
X38892894Y55743548D01*
X38903938Y55746792D01*
X38915386Y55745555D01*
X38949689Y55756955D01*
X39046451Y55805335D01*
X39048194Y55806957D01*
X39050521Y55807463D01*
X39079459Y55829125D01*
X39127840Y55877506D01*
X39128981Y55879596D01*
X39131027Y55880811D01*
X39151629Y55910513D01*
X39160366Y55927987D01*
X39346790Y55927987D01*
X39352542Y55901543D01*
X39354473Y55874546D01*
X39360029Y55867123D01*
X39362001Y55858062D01*
X39383664Y55829125D01*
X39432045Y55780745D01*
X39440182Y55776302D01*
X39445738Y55768880D01*
X39458663Y55764060D01*
X39469089Y55755025D01*
X39482745Y55753062D01*
X39494852Y55746451D01*
X39504098Y55747113D01*
X39512786Y55743872D01*
X39526266Y55746805D01*
X39539921Y55744841D01*
X39552469Y55750572D01*
X39566230Y55751556D01*
X39573650Y55757112D01*
X39582711Y55759082D01*
X39600868Y55772675D01*
X39605014Y55774568D01*
X39606512Y55776900D01*
X39611649Y55780745D01*
X39660029Y55829124D01*
X39664473Y55837264D01*
X39671896Y55842820D01*
X39681353Y55868176D01*
X39694325Y55891931D01*
X39693663Y55901181D01*
X39696904Y55909868D01*
X39691151Y55936313D01*
X39689221Y55963308D01*
X39683664Y55970731D01*
X39681693Y55979793D01*
X39660031Y56008731D01*
X39611650Y56057112D01*
X39603509Y56061557D01*
X39597955Y56068977D01*
X39585031Y56073798D01*
X39574605Y56082832D01*
X39560950Y56084796D01*
X39548843Y56091406D01*
X39539594Y56090745D01*
X39530907Y56093985D01*
X39517427Y56091053D01*
X39503773Y56093016D01*
X39491226Y56087287D01*
X39477465Y56086302D01*
X39470041Y56080745D01*
X39460982Y56078774D01*
X39442823Y56065182D01*
X39438680Y56063289D01*
X39437182Y56060959D01*
X39432044Y56057112D01*
X39383663Y56008731D01*
X39379218Y56000591D01*
X39371797Y55995035D01*
X39362340Y55969681D01*
X39349369Y55945924D01*
X39350030Y55936675D01*
X39346790Y55927987D01*
X39160366Y55927987D01*
X39200010Y56007275D01*
X39202048Y56018605D01*
X39208274Y56028291D01*
X39213418Y56064071D01*
X39213418Y56354357D01*
X39210174Y56365403D01*
X39211411Y56376850D01*
X39200010Y56411153D01*
X39151629Y56507915D01*
X39150008Y56509658D01*
X39149502Y56511984D01*
X39127840Y56540922D01*
X39119954Y56548808D01*
X39781897Y56548808D01*
X39786780Y56512991D01*
X39980304Y55835658D01*
X39996574Y55809931D01*
X40010529Y55782881D01*
X40015491Y55780019D01*
X40018552Y55775178D01*
X40046143Y55762333D01*
X40072513Y55747119D01*
X40078234Y55747394D01*
X40083427Y55744976D01*
X40113584Y55749088D01*
X40143990Y55750545D01*
X40148655Y55753870D01*
X40154331Y55754643D01*
X40177477Y55774406D01*
X40202270Y55792071D01*
X40206253Y55798975D01*
X40208753Y55801109D01*
X40210141Y55805715D01*
X40220335Y55823381D01*
X40295941Y56012399D01*
X40371549Y55823382D01*
X40390359Y55799448D01*
X40407001Y55773964D01*
X40412228Y55771623D01*
X40415768Y55767119D01*
X40444527Y55757156D01*
X40472310Y55744712D01*
X40477974Y55745569D01*
X40483386Y55743694D01*
X40512963Y55750861D01*
X40543065Y55755413D01*
X40547367Y55759197D01*
X40552934Y55760545D01*
X40573940Y55782563D01*
X40596804Y55802668D01*
X40600062Y55809944D01*
X40602331Y55812321D01*
X40603242Y55817044D01*
X40611580Y55835658D01*
X40805104Y56512991D01*
X40804842Y56548808D01*
X40846278Y56548808D01*
X40851161Y56512991D01*
X41044685Y55835658D01*
X41060955Y55809931D01*
X41074910Y55782881D01*
X41079872Y55780019D01*
X41082933Y55775178D01*
X41110524Y55762333D01*
X41136894Y55747119D01*
X41142615Y55747394D01*
X41147808Y55744976D01*
X41177965Y55749088D01*
X41208371Y55750545D01*
X41213036Y55753870D01*
X41218712Y55754643D01*
X41241858Y55774406D01*
X41266651Y55792071D01*
X41270634Y55798975D01*
X41273134Y55801109D01*
X41274522Y55805715D01*
X41284716Y55823381D01*
X41360322Y56012399D01*
X41435930Y55823382D01*
X41454740Y55799448D01*
X41471382Y55773964D01*
X41476609Y55771623D01*
X41480149Y55767119D01*
X41508908Y55757156D01*
X41536691Y55744712D01*
X41542355Y55745569D01*
X41547767Y55743694D01*
X41577344Y55750861D01*
X41607446Y55755413D01*
X41611748Y55759197D01*
X41617315Y55760545D01*
X41638321Y55782563D01*
X41661185Y55802668D01*
X41664443Y55809944D01*
X41666712Y55812321D01*
X41667623Y55817044D01*
X41675961Y55835658D01*
X41869485Y56512991D01*
X41869223Y56548808D01*
X41910659Y56548808D01*
X41915542Y56512991D01*
X42109066Y55835658D01*
X42125336Y55809931D01*
X42139291Y55782881D01*
X42144253Y55780019D01*
X42147314Y55775178D01*
X42174905Y55762333D01*
X42201275Y55747119D01*
X42206996Y55747394D01*
X42212189Y55744976D01*
X42242346Y55749088D01*
X42272752Y55750545D01*
X42277417Y55753870D01*
X42283093Y55754643D01*
X42306239Y55774406D01*
X42331032Y55792071D01*
X42335015Y55798975D01*
X42337515Y55801109D01*
X42338903Y55805715D01*
X42349097Y55823381D01*
X42424703Y56012399D01*
X42500311Y55823382D01*
X42519121Y55799448D01*
X42535763Y55773964D01*
X42540990Y55771623D01*
X42544530Y55767119D01*
X42573289Y55757156D01*
X42601072Y55744712D01*
X42606736Y55745569D01*
X42612148Y55743694D01*
X42641725Y55750861D01*
X42671827Y55755413D01*
X42676129Y55759197D01*
X42681696Y55760545D01*
X42702702Y55782563D01*
X42725566Y55802668D01*
X42728824Y55809944D01*
X42731093Y55812321D01*
X42732004Y55817044D01*
X42740342Y55835658D01*
X42933866Y56512991D01*
X42933343Y56584549D01*
X42894217Y56644465D01*
X42828908Y56673717D01*
X42758153Y56663016D01*
X42704414Y56615761D01*
X42689638Y56582771D01*
X42598172Y56262644D01*
X42542621Y56401524D01*
X42527677Y56420538D01*
X42516593Y56442023D01*
X42505975Y56448149D01*
X42498401Y56457786D01*
X42475552Y56465702D01*
X42454609Y56477785D01*
X42442366Y56477199D01*
X42430784Y56481211D01*
X42407281Y56475517D01*
X42383131Y56474359D01*
X42373148Y56467247D01*
X42361236Y56464360D01*
X42344545Y56446867D01*
X42324852Y56432834D01*
X42315204Y56416113D01*
X42311839Y56412585D01*
X42311170Y56409120D01*
X42306787Y56401523D01*
X42251235Y56262644D01*
X42159770Y56582771D01*
X42121522Y56643251D01*
X42056647Y56673453D01*
X41985743Y56663786D01*
X41931321Y56617320D01*
X41910659Y56548808D01*
X41869223Y56548808D01*
X41868962Y56584549D01*
X41829836Y56644465D01*
X41764527Y56673717D01*
X41693772Y56663016D01*
X41640033Y56615761D01*
X41625257Y56582771D01*
X41533791Y56262644D01*
X41478240Y56401524D01*
X41463296Y56420538D01*
X41452212Y56442023D01*
X41441594Y56448149D01*
X41434020Y56457786D01*
X41411171Y56465702D01*
X41390228Y56477785D01*
X41377985Y56477199D01*
X41366403Y56481211D01*
X41342900Y56475517D01*
X41318750Y56474359D01*
X41308767Y56467247D01*
X41296855Y56464360D01*
X41280164Y56446867D01*
X41260471Y56432834D01*
X41250823Y56416113D01*
X41247458Y56412585D01*
X41246789Y56409120D01*
X41242406Y56401523D01*
X41186854Y56262644D01*
X41095389Y56582771D01*
X41057141Y56643251D01*
X40992266Y56673453D01*
X40921362Y56663786D01*
X40866940Y56617320D01*
X40846278Y56548808D01*
X40804842Y56548808D01*
X40804581Y56584549D01*
X40765455Y56644465D01*
X40700146Y56673717D01*
X40629391Y56663016D01*
X40575652Y56615761D01*
X40560876Y56582771D01*
X40469410Y56262644D01*
X40413859Y56401524D01*
X40398915Y56420538D01*
X40387831Y56442023D01*
X40377213Y56448149D01*
X40369639Y56457786D01*
X40346790Y56465702D01*
X40325847Y56477785D01*
X40313604Y56477199D01*
X40302022Y56481211D01*
X40278519Y56475517D01*
X40254369Y56474359D01*
X40244386Y56467247D01*
X40232474Y56464360D01*
X40215783Y56446867D01*
X40196090Y56432834D01*
X40186442Y56416113D01*
X40183077Y56412585D01*
X40182408Y56409120D01*
X40178025Y56401523D01*
X40122473Y56262644D01*
X40031008Y56582771D01*
X39992760Y56643251D01*
X39927885Y56673453D01*
X39856981Y56663786D01*
X39802559Y56617320D01*
X39781897Y56548808D01*
X39119954Y56548808D01*
X39079459Y56589303D01*
X39077369Y56590445D01*
X39076154Y56592490D01*
X39046452Y56613092D01*
X38949690Y56661473D01*
X38938360Y56663512D01*
X38928674Y56669737D01*
X38892894Y56674881D01*
X38747751Y56674881D01*
X38736705Y56671638D01*
X38725258Y56672874D01*
X38690955Y56661473D01*
X38594193Y56613092D01*
X38592450Y56611472D01*
X38590124Y56610965D01*
X38561186Y56589303D01*
X38512805Y56540922D01*
X38511663Y56538833D01*
X38509618Y56537617D01*
X38489016Y56507915D01*
X38440635Y56411153D01*
X38438596Y56399824D01*
X38432371Y56390137D01*
X38427227Y56354357D01*
X38427227Y56064071D01*
X38245799Y56064071D01*
X38245799Y56886548D01*
X38225638Y56955209D01*
X38171557Y57002071D01*
X38100725Y57012255D01*
X38035632Y56982528D01*
X37996943Y56922328D01*
X37991799Y56886548D01*
X37991799Y56045670D01*
X37975758Y56013590D01*
X37916861Y55984141D01*
X37864464Y55935402D01*
X37846735Y55866074D01*
X37712966Y55866074D01*
X37713609Y55870548D01*
X37713609Y56547881D01*
X37693448Y56616542D01*
X37639367Y56663404D01*
X37611863Y56667359D01*
X37617229Y56669809D01*
X37630991Y56670793D01*
X37638414Y56676351D01*
X37647474Y56678321D01*
X37665632Y56691914D01*
X37669776Y56693806D01*
X37671273Y56696137D01*
X37676412Y56699983D01*
X37724793Y56748364D01*
X37729237Y56756505D01*
X37736658Y56762059D01*
X37746114Y56787414D01*
X37759087Y56811171D01*
X37758425Y56820420D01*
X37761666Y56829107D01*
X37755913Y56855552D01*
X37753983Y56882549D01*
X37748425Y56889973D01*
X37746455Y56899032D01*
X37724793Y56927970D01*
X37676412Y56976351D01*
X37668271Y56980796D01*
X37662717Y56988216D01*
X37649793Y56993037D01*
X37639367Y57002071D01*
X37625712Y57004035D01*
X37613605Y57010645D01*
X37604356Y57009984D01*
X37595669Y57013224D01*
X37582189Y57010292D01*
X37568535Y57012255D01*
X37555988Y57006526D01*
X37542227Y57005541D01*
X37534803Y56999984D01*
X37525744Y56998013D01*
X37507585Y56984421D01*
X37503442Y56982528D01*
X37501944Y56980198D01*
X37496806Y56976351D01*
X37448425Y56927970D01*
X37443980Y56919832D01*
X37436559Y56914275D01*
X37427101Y56888917D01*
X37414131Y56865163D01*
X37414792Y56855915D01*
X37411552Y56847227D01*
X30637894Y56847227D01*
X30637894Y57158367D01*
X43079009Y57158367D01*
X43079009Y55598405D01*
G37*
G36*
X79353737Y8246160D02*
G01*
X78809451Y8246160D01*
X78809451Y8517010D01*
X78954594Y8517010D01*
X78974755Y8448349D01*
X79028836Y8401487D01*
X79099668Y8391303D01*
X79164761Y8421030D01*
X79203450Y8481230D01*
X79208594Y8517010D01*
X79208594Y9291105D01*
X79188433Y9359766D01*
X79134352Y9406628D01*
X79063520Y9416812D01*
X78998427Y9387085D01*
X78959738Y9326885D01*
X78954594Y9291105D01*
X78954594Y8517010D01*
X78809451Y8517010D01*
X78809451Y9561955D01*
X79353737Y9561955D01*
X79353737Y8246160D01*
G37*
G36*
X79739492Y10405160D02*
G01*
X78423697Y10405160D01*
X78423697Y11044984D01*
X78568840Y11044984D01*
X78598567Y10979891D01*
X78658767Y10941202D01*
X78694547Y10936058D01*
X78954594Y10936058D01*
X78954594Y10676010D01*
X78974755Y10607349D01*
X79028836Y10560487D01*
X79099668Y10550303D01*
X79164761Y10580030D01*
X79203450Y10640230D01*
X79208594Y10676010D01*
X79208594Y10936058D01*
X79468642Y10936058D01*
X79537303Y10956219D01*
X79584165Y11010300D01*
X79594349Y11081132D01*
X79564622Y11146225D01*
X79504422Y11184914D01*
X79468642Y11190058D01*
X79208594Y11190058D01*
X79208594Y11450105D01*
X79188433Y11518766D01*
X79134352Y11565628D01*
X79063520Y11575812D01*
X78998427Y11546085D01*
X78959738Y11485885D01*
X78954594Y11450105D01*
X78954594Y11190058D01*
X78694547Y11190058D01*
X78625886Y11169897D01*
X78579024Y11115816D01*
X78568840Y11044984D01*
X78423697Y11044984D01*
X78423697Y11720955D01*
X79739492Y11720955D01*
X79739492Y10405160D01*
G37*
G36*
X3602377Y56479793D02*
G01*
X3621616Y56460554D01*
X3647371Y56409044D01*
X3647371Y56227099D01*
X3621616Y56175589D01*
X3602377Y56156350D01*
X3550867Y56130595D01*
X3417303Y56130595D01*
X3365793Y56156350D01*
X3346554Y56175589D01*
X3320799Y56227099D01*
X3320799Y56409044D01*
X3346554Y56460554D01*
X3365793Y56479793D01*
X3417303Y56505548D01*
X3550867Y56505548D01*
X3602377Y56479793D01*
G37*
G36*
X4046514Y55344405D02*
G01*
X2921656Y55344405D01*
X2921656Y56051976D01*
X3066799Y56051976D01*
X3067771Y56048664D01*
X3070591Y56021174D01*
X3118972Y55827650D01*
X3120879Y55824399D01*
X3120943Y55820629D01*
X3136510Y55788005D01*
X3233272Y55642862D01*
X3236964Y55639770D01*
X3249139Y55623506D01*
X3297520Y55575125D01*
X3299610Y55573984D01*
X3300826Y55571937D01*
X3330528Y55551335D01*
X3427290Y55502955D01*
X3438620Y55500917D01*
X3448305Y55494692D01*
X3484085Y55489548D01*
X3677609Y55489548D01*
X3746270Y55509709D01*
X3793132Y55563790D01*
X3803316Y55634622D01*
X3773589Y55699715D01*
X3713389Y55738404D01*
X3677609Y55743548D01*
X3514065Y55743548D01*
X3462553Y55769304D01*
X3437634Y55794223D01*
X3382231Y55877328D01*
X3387323Y55876595D01*
X3580847Y55876595D01*
X3591892Y55879839D01*
X3603340Y55878602D01*
X3637643Y55890003D01*
X3734405Y55938384D01*
X3736147Y55940005D01*
X3738474Y55940511D01*
X3767412Y55962173D01*
X3815793Y56010554D01*
X3816934Y56012644D01*
X3818980Y56013859D01*
X3839582Y56043561D01*
X3887963Y56140323D01*
X3890001Y56151653D01*
X3896227Y56161339D01*
X3901371Y56197119D01*
X3901371Y56439024D01*
X3898127Y56450070D01*
X3899364Y56461517D01*
X3887963Y56495820D01*
X3839582Y56592582D01*
X3837961Y56594325D01*
X3837455Y56596651D01*
X3815793Y56625589D01*
X3767412Y56673970D01*
X3765322Y56675112D01*
X3764107Y56677157D01*
X3734405Y56697759D01*
X3637643Y56746140D01*
X3626313Y56748179D01*
X3616627Y56754404D01*
X3580847Y56759548D01*
X3387323Y56759548D01*
X3376277Y56756305D01*
X3364830Y56757541D01*
X3330527Y56746140D01*
X3233765Y56697759D01*
X3232022Y56696139D01*
X3229696Y56695632D01*
X3200758Y56673970D01*
X3152377Y56625589D01*
X3151235Y56623500D01*
X3149190Y56622284D01*
X3128588Y56592582D01*
X3080207Y56495820D01*
X3078168Y56484491D01*
X3071943Y56474804D01*
X3066799Y56439024D01*
X3066799Y56051976D01*
X2921656Y56051976D01*
X2921656Y56904691D01*
X4046514Y56904691D01*
X4046514Y55344405D01*
G37*
G36*
X4045221Y35024405D02*
G01*
X2922949Y35024405D01*
X2922949Y35278474D01*
X3068092Y35278474D01*
X3097819Y35213381D01*
X3158019Y35174692D01*
X3193799Y35169548D01*
X3774371Y35169548D01*
X3843032Y35189709D01*
X3889894Y35243790D01*
X3900078Y35314622D01*
X3870351Y35379715D01*
X3810151Y35418404D01*
X3774371Y35423548D01*
X3611085Y35423548D01*
X3611085Y35963799D01*
X3620813Y35957051D01*
X3717575Y35908670D01*
X3788003Y35895996D01*
X3854104Y35923410D01*
X3894890Y35982210D01*
X3897411Y36053725D01*
X3860869Y36115252D01*
X3831167Y36135854D01*
X3752839Y36175018D01*
X3679539Y36248319D01*
X3589755Y36382995D01*
X3563113Y36405308D01*
X3536843Y36428071D01*
X3535744Y36428229D01*
X3534894Y36428941D01*
X3500405Y36433310D01*
X3466011Y36438255D01*
X3465002Y36437795D01*
X3463902Y36437934D01*
X3432530Y36422965D01*
X3400918Y36408528D01*
X3400318Y36407595D01*
X3399317Y36407117D01*
X3381037Y36377594D01*
X3362229Y36348328D01*
X3362020Y36346881D01*
X3361646Y36346275D01*
X3361676Y36344483D01*
X3357085Y36312548D01*
X3357085Y35423548D01*
X3193799Y35423548D01*
X3125138Y35403387D01*
X3078276Y35349306D01*
X3068092Y35278474D01*
X2922949Y35278474D01*
X2922949Y36583398D01*
X4045221Y36583398D01*
X4045221Y35024405D01*
G37*
G36*
X25713840Y68812452D02*
G01*
X24398045Y68812452D01*
X24398045Y69066521D01*
X24543188Y69066521D01*
X24572915Y69001428D01*
X24633115Y68962739D01*
X24668895Y68957595D01*
X25442990Y68957595D01*
X25511651Y68977756D01*
X25558513Y69031837D01*
X25568697Y69102669D01*
X25538970Y69167762D01*
X25478770Y69206451D01*
X25442990Y69211595D01*
X24668895Y69211595D01*
X24600234Y69191434D01*
X24553372Y69137353D01*
X24543188Y69066521D01*
X24398045Y69066521D01*
X24398045Y69356738D01*
X25713840Y69356738D01*
X25713840Y68812452D01*
G37*
G36*
X23554840Y68426698D02*
G01*
X22239045Y68426698D01*
X22239045Y69066521D01*
X22384188Y69066521D01*
X22413915Y69001428D01*
X22474115Y68962739D01*
X22509895Y68957595D01*
X22769942Y68957595D01*
X22769942Y68697548D01*
X22790103Y68628887D01*
X22844184Y68582025D01*
X22915016Y68571841D01*
X22980109Y68601568D01*
X23018798Y68661768D01*
X23023942Y68697548D01*
X23023942Y68957595D01*
X23283990Y68957595D01*
X23352651Y68977756D01*
X23399513Y69031837D01*
X23409697Y69102669D01*
X23379970Y69167762D01*
X23319770Y69206451D01*
X23283990Y69211595D01*
X23023942Y69211595D01*
X23023942Y69471643D01*
X23003781Y69540304D01*
X22949700Y69587166D01*
X22878868Y69597350D01*
X22813775Y69567623D01*
X22775086Y69507423D01*
X22769942Y69471643D01*
X22769942Y69211595D01*
X22509895Y69211595D01*
X22441234Y69191434D01*
X22394372Y69137353D01*
X22384188Y69066521D01*
X22239045Y69066521D01*
X22239045Y69742493D01*
X23554840Y69742493D01*
X23554840Y68426698D01*
G37*
G36*
X62289840Y1375452D02*
G01*
X60974045Y1375452D01*
X60974045Y1629521D01*
X61119188Y1629521D01*
X61148915Y1564428D01*
X61209115Y1525739D01*
X61244895Y1520595D01*
X62018990Y1520595D01*
X62087651Y1540756D01*
X62134513Y1594837D01*
X62144697Y1665669D01*
X62114970Y1730762D01*
X62054770Y1769451D01*
X62018990Y1774595D01*
X61244895Y1774595D01*
X61176234Y1754434D01*
X61129372Y1700353D01*
X61119188Y1629521D01*
X60974045Y1629521D01*
X60974045Y1919738D01*
X62289840Y1919738D01*
X62289840Y1375452D01*
G37*
G36*
X57209840Y989698D02*
G01*
X55894045Y989698D01*
X55894045Y1629521D01*
X56039188Y1629521D01*
X56068915Y1564428D01*
X56129115Y1525739D01*
X56164895Y1520595D01*
X56424942Y1520595D01*
X56424942Y1260548D01*
X56445103Y1191887D01*
X56499184Y1145025D01*
X56570016Y1134841D01*
X56635109Y1164568D01*
X56673798Y1224768D01*
X56678942Y1260548D01*
X56678942Y1520595D01*
X56938990Y1520595D01*
X57007651Y1540756D01*
X57054513Y1594837D01*
X57064697Y1665669D01*
X57034970Y1730762D01*
X56974770Y1769451D01*
X56938990Y1774595D01*
X56678942Y1774595D01*
X56678942Y2034643D01*
X56658781Y2103304D01*
X56604700Y2150166D01*
X56533868Y2160350D01*
X56468775Y2130623D01*
X56430086Y2070423D01*
X56424942Y2034643D01*
X56424942Y1774595D01*
X56164895Y1774595D01*
X56096234Y1754434D01*
X56049372Y1700353D01*
X56039188Y1629521D01*
X55894045Y1629521D01*
X55894045Y2305493D01*
X57209840Y2305493D01*
X57209840Y989698D01*
G37*
G36*
X51240840Y1375452D02*
G01*
X49925045Y1375452D01*
X49925045Y1629521D01*
X50070188Y1629521D01*
X50099915Y1564428D01*
X50160115Y1525739D01*
X50195895Y1520595D01*
X50969990Y1520595D01*
X51038651Y1540756D01*
X51085513Y1594837D01*
X51095697Y1665669D01*
X51065970Y1730762D01*
X51005770Y1769451D01*
X50969990Y1774595D01*
X50195895Y1774595D01*
X50127234Y1754434D01*
X50080372Y1700353D01*
X50070188Y1629521D01*
X49925045Y1629521D01*
X49925045Y1919738D01*
X51240840Y1919738D01*
X51240840Y1375452D01*
G37*
G36*
X46160840Y989698D02*
G01*
X44845045Y989698D01*
X44845045Y1629521D01*
X44990188Y1629521D01*
X45019915Y1564428D01*
X45080115Y1525739D01*
X45115895Y1520595D01*
X45375942Y1520595D01*
X45375942Y1260548D01*
X45396103Y1191887D01*
X45450184Y1145025D01*
X45521016Y1134841D01*
X45586109Y1164568D01*
X45624798Y1224768D01*
X45629942Y1260548D01*
X45629942Y1520595D01*
X45889990Y1520595D01*
X45958651Y1540756D01*
X46005513Y1594837D01*
X46015697Y1665669D01*
X45985970Y1730762D01*
X45925770Y1769451D01*
X45889990Y1774595D01*
X45629942Y1774595D01*
X45629942Y2034643D01*
X45609781Y2103304D01*
X45555700Y2150166D01*
X45484868Y2160350D01*
X45419775Y2130623D01*
X45381086Y2070423D01*
X45375942Y2034643D01*
X45375942Y1774595D01*
X45115895Y1774595D01*
X45047234Y1754434D01*
X45000372Y1700353D01*
X44990188Y1629521D01*
X44845045Y1629521D01*
X44845045Y2305493D01*
X46160840Y2305493D01*
X46160840Y989698D01*
G37*
D11*
X71185634Y47828442D02*
X71852301Y48780823D01*
X72328491Y47828442D02*
X72328491Y49828442D01*
X72328491Y49828442D02*
X71566586Y49828442D01*
X71566586Y49828442D02*
X71376110Y49733204D01*
X71376110Y49733204D02*
X71280872Y49637966D01*
X71280872Y49637966D02*
X71185634Y49447490D01*
X71185634Y49447490D02*
X71185634Y49161776D01*
X71185634Y49161776D02*
X71280872Y48971300D01*
X71280872Y48971300D02*
X71376110Y48876061D01*
X71376110Y48876061D02*
X71566586Y48780823D01*
X71566586Y48780823D02*
X72328491Y48780823D01*
X70042777Y47828442D02*
X70233253Y47923680D01*
X70233253Y47923680D02*
X70328491Y48018919D01*
X70328491Y48018919D02*
X70423729Y48209395D01*
X70423729Y48209395D02*
X70423729Y48780823D01*
X70423729Y48780823D02*
X70328491Y48971300D01*
X70328491Y48971300D02*
X70233253Y49066538D01*
X70233253Y49066538D02*
X70042777Y49161776D01*
X70042777Y49161776D02*
X69757062Y49161776D01*
X69757062Y49161776D02*
X69566586Y49066538D01*
X69566586Y49066538D02*
X69471348Y48971300D01*
X69471348Y48971300D02*
X69376110Y48780823D01*
X69376110Y48780823D02*
X69376110Y48209395D01*
X69376110Y48209395D02*
X69471348Y48018919D01*
X69471348Y48018919D02*
X69566586Y47923680D01*
X69566586Y47923680D02*
X69757062Y47828442D01*
X69757062Y47828442D02*
X70042777Y47828442D01*
X68518967Y47828442D02*
X68518967Y49828442D01*
X68518967Y48876061D02*
X67376110Y48876061D01*
X67376110Y47828442D02*
X67376110Y49828442D01*
X66518967Y47923680D02*
X66233253Y47828442D01*
X66233253Y47828442D02*
X65757062Y47828442D01*
X65757062Y47828442D02*
X65566586Y47923680D01*
X65566586Y47923680D02*
X65471348Y48018919D01*
X65471348Y48018919D02*
X65376110Y48209395D01*
X65376110Y48209395D02*
X65376110Y48399871D01*
X65376110Y48399871D02*
X65471348Y48590347D01*
X65471348Y48590347D02*
X65566586Y48685585D01*
X65566586Y48685585D02*
X65757062Y48780823D01*
X65757062Y48780823D02*
X66138015Y48876061D01*
X66138015Y48876061D02*
X66328491Y48971300D01*
X66328491Y48971300D02*
X66423729Y49066538D01*
X66423729Y49066538D02*
X66518967Y49257014D01*
X66518967Y49257014D02*
X66518967Y49447490D01*
X66518967Y49447490D02*
X66423729Y49637966D01*
X66423729Y49637966D02*
X66328491Y49733204D01*
X66328491Y49733204D02*
X66138015Y49828442D01*
X66138015Y49828442D02*
X65661824Y49828442D01*
X65661824Y49828442D02*
X65376110Y49733204D01*
D12*
X71764193Y44887196D02*
X71848860Y44802529D01*
X71848860Y44802529D02*
X72102860Y44717863D01*
X72102860Y44717863D02*
X72272193Y44717863D01*
X72272193Y44717863D02*
X72526193Y44802529D01*
X72526193Y44802529D02*
X72695527Y44971863D01*
X72695527Y44971863D02*
X72780193Y45141196D01*
X72780193Y45141196D02*
X72864860Y45479863D01*
X72864860Y45479863D02*
X72864860Y45733863D01*
X72864860Y45733863D02*
X72780193Y46072529D01*
X72780193Y46072529D02*
X72695527Y46241863D01*
X72695527Y46241863D02*
X72526193Y46411196D01*
X72526193Y46411196D02*
X72272193Y46495863D01*
X72272193Y46495863D02*
X72102860Y46495863D01*
X72102860Y46495863D02*
X71848860Y46411196D01*
X71848860Y46411196D02*
X71764193Y46326529D01*
X70748193Y44717863D02*
X70917527Y44802529D01*
X70917527Y44802529D02*
X71002193Y44887196D01*
X71002193Y44887196D02*
X71086860Y45056529D01*
X71086860Y45056529D02*
X71086860Y45564529D01*
X71086860Y45564529D02*
X71002193Y45733863D01*
X71002193Y45733863D02*
X70917527Y45818529D01*
X70917527Y45818529D02*
X70748193Y45903196D01*
X70748193Y45903196D02*
X70494193Y45903196D01*
X70494193Y45903196D02*
X70324860Y45818529D01*
X70324860Y45818529D02*
X70240193Y45733863D01*
X70240193Y45733863D02*
X70155527Y45564529D01*
X70155527Y45564529D02*
X70155527Y45056529D01*
X70155527Y45056529D02*
X70240193Y44887196D01*
X70240193Y44887196D02*
X70324860Y44802529D01*
X70324860Y44802529D02*
X70494193Y44717863D01*
X70494193Y44717863D02*
X70748193Y44717863D01*
X69393526Y44717863D02*
X69393526Y45903196D01*
X69393526Y45733863D02*
X69308860Y45818529D01*
X69308860Y45818529D02*
X69139526Y45903196D01*
X69139526Y45903196D02*
X68885526Y45903196D01*
X68885526Y45903196D02*
X68716193Y45818529D01*
X68716193Y45818529D02*
X68631526Y45649196D01*
X68631526Y45649196D02*
X68631526Y44717863D01*
X68631526Y45649196D02*
X68546860Y45818529D01*
X68546860Y45818529D02*
X68377526Y45903196D01*
X68377526Y45903196D02*
X68123526Y45903196D01*
X68123526Y45903196D02*
X67954193Y45818529D01*
X67954193Y45818529D02*
X67869526Y45649196D01*
X67869526Y45649196D02*
X67869526Y44717863D01*
X67022859Y45903196D02*
X67022859Y44125196D01*
X67022859Y45818529D02*
X66853526Y45903196D01*
X66853526Y45903196D02*
X66514859Y45903196D01*
X66514859Y45903196D02*
X66345526Y45818529D01*
X66345526Y45818529D02*
X66260859Y45733863D01*
X66260859Y45733863D02*
X66176193Y45564529D01*
X66176193Y45564529D02*
X66176193Y45056529D01*
X66176193Y45056529D02*
X66260859Y44887196D01*
X66260859Y44887196D02*
X66345526Y44802529D01*
X66345526Y44802529D02*
X66514859Y44717863D01*
X66514859Y44717863D02*
X66853526Y44717863D01*
X66853526Y44717863D02*
X67022859Y44802529D01*
X65160192Y44717863D02*
X65329526Y44802529D01*
X65329526Y44802529D02*
X65414192Y44971863D01*
X65414192Y44971863D02*
X65414192Y46495863D01*
X64482859Y44717863D02*
X64482859Y45903196D01*
X64482859Y46495863D02*
X64567526Y46411196D01*
X64567526Y46411196D02*
X64482859Y46326529D01*
X64482859Y46326529D02*
X64398193Y46411196D01*
X64398193Y46411196D02*
X64482859Y46495863D01*
X64482859Y46495863D02*
X64482859Y46326529D01*
X62874192Y44717863D02*
X62874192Y45649196D01*
X62874192Y45649196D02*
X62958859Y45818529D01*
X62958859Y45818529D02*
X63128192Y45903196D01*
X63128192Y45903196D02*
X63466859Y45903196D01*
X63466859Y45903196D02*
X63636192Y45818529D01*
X62874192Y44802529D02*
X63043526Y44717863D01*
X63043526Y44717863D02*
X63466859Y44717863D01*
X63466859Y44717863D02*
X63636192Y44802529D01*
X63636192Y44802529D02*
X63720859Y44971863D01*
X63720859Y44971863D02*
X63720859Y45141196D01*
X63720859Y45141196D02*
X63636192Y45310529D01*
X63636192Y45310529D02*
X63466859Y45395196D01*
X63466859Y45395196D02*
X63043526Y45395196D01*
X63043526Y45395196D02*
X62874192Y45479863D01*
X62027525Y45903196D02*
X62027525Y44717863D01*
X62027525Y45733863D02*
X61942859Y45818529D01*
X61942859Y45818529D02*
X61773525Y45903196D01*
X61773525Y45903196D02*
X61519525Y45903196D01*
X61519525Y45903196D02*
X61350192Y45818529D01*
X61350192Y45818529D02*
X61265525Y45649196D01*
X61265525Y45649196D02*
X61265525Y44717863D01*
X60672858Y45903196D02*
X59995525Y45903196D01*
X60418858Y46495863D02*
X60418858Y44971863D01*
X60418858Y44971863D02*
X60334192Y44802529D01*
X60334192Y44802529D02*
X60164858Y44717863D01*
X60164858Y44717863D02*
X59995525Y44717863D01*
D10*
X38058788Y36499035D02*
X38058788Y38199035D01*
X38058788Y38199035D02*
X37487359Y38199035D01*
X37487359Y38199035D02*
X37344502Y38118083D01*
X37344502Y38118083D02*
X37273073Y38037130D01*
X37273073Y38037130D02*
X37201645Y37875226D01*
X37201645Y37875226D02*
X37201645Y37632368D01*
X37201645Y37632368D02*
X37273073Y37470464D01*
X37273073Y37470464D02*
X37344502Y37389511D01*
X37344502Y37389511D02*
X37487359Y37308559D01*
X37487359Y37308559D02*
X38058788Y37308559D01*
X36558788Y36499035D02*
X36558788Y38199035D01*
X36558788Y37551416D02*
X36415931Y37632368D01*
X36415931Y37632368D02*
X36130216Y37632368D01*
X36130216Y37632368D02*
X35987359Y37551416D01*
X35987359Y37551416D02*
X35915931Y37470464D01*
X35915931Y37470464D02*
X35844502Y37308559D01*
X35844502Y37308559D02*
X35844502Y36822845D01*
X35844502Y36822845D02*
X35915931Y36660940D01*
X35915931Y36660940D02*
X35987359Y36579987D01*
X35987359Y36579987D02*
X36130216Y36499035D01*
X36130216Y36499035D02*
X36415931Y36499035D01*
X36415931Y36499035D02*
X36558788Y36579987D01*
X18170132Y43941985D02*
X18278989Y43996413D01*
X18278989Y43996413D02*
X18333418Y44050842D01*
X18333418Y44050842D02*
X18387846Y44159699D01*
X18387846Y44159699D02*
X18387846Y44486271D01*
X18387846Y44486271D02*
X18333418Y44595128D01*
X18333418Y44595128D02*
X18278989Y44649556D01*
X18278989Y44649556D02*
X18170132Y44703985D01*
X18170132Y44703985D02*
X18006846Y44703985D01*
X18006846Y44703985D02*
X17897989Y44649556D01*
X17897989Y44649556D02*
X17843561Y44595128D01*
X17843561Y44595128D02*
X17789132Y44486271D01*
X17789132Y44486271D02*
X17789132Y44159699D01*
X17789132Y44159699D02*
X17843561Y44050842D01*
X17843561Y44050842D02*
X17897989Y43996413D01*
X17897989Y43996413D02*
X18006846Y43941985D01*
X18006846Y43941985D02*
X18170132Y43941985D01*
X17299275Y44703985D02*
X17299275Y43560985D01*
X17299275Y44649556D02*
X17190418Y44703985D01*
X17190418Y44703985D02*
X16972703Y44703985D01*
X16972703Y44703985D02*
X16863846Y44649556D01*
X16863846Y44649556D02*
X16809418Y44595128D01*
X16809418Y44595128D02*
X16754989Y44486271D01*
X16754989Y44486271D02*
X16754989Y44159699D01*
X16754989Y44159699D02*
X16809418Y44050842D01*
X16809418Y44050842D02*
X16863846Y43996413D01*
X16863846Y43996413D02*
X16972703Y43941985D01*
X16972703Y43941985D02*
X17190418Y43941985D01*
X17190418Y43941985D02*
X17299275Y43996413D01*
X15829703Y43996413D02*
X15938560Y43941985D01*
X15938560Y43941985D02*
X16156275Y43941985D01*
X16156275Y43941985D02*
X16265132Y43996413D01*
X16265132Y43996413D02*
X16319560Y44105271D01*
X16319560Y44105271D02*
X16319560Y44540699D01*
X16319560Y44540699D02*
X16265132Y44649556D01*
X16265132Y44649556D02*
X16156275Y44703985D01*
X16156275Y44703985D02*
X15938560Y44703985D01*
X15938560Y44703985D02*
X15829703Y44649556D01*
X15829703Y44649556D02*
X15775275Y44540699D01*
X15775275Y44540699D02*
X15775275Y44431842D01*
X15775275Y44431842D02*
X16319560Y44322985D01*
X15285418Y44703985D02*
X15285418Y43941985D01*
X15285418Y44595128D02*
X15230989Y44649556D01*
X15230989Y44649556D02*
X15122132Y44703985D01*
X15122132Y44703985D02*
X14958846Y44703985D01*
X14958846Y44703985D02*
X14849989Y44649556D01*
X14849989Y44649556D02*
X14795561Y44540699D01*
X14795561Y44540699D02*
X14795561Y43941985D01*
X13844512Y43909298D02*
X13844512Y44925298D01*
X13409083Y43909298D02*
X13409083Y44441488D01*
X13409083Y44441488D02*
X13457464Y44538250D01*
X13457464Y44538250D02*
X13554226Y44586631D01*
X13554226Y44586631D02*
X13699369Y44586631D01*
X13699369Y44586631D02*
X13796131Y44538250D01*
X13796131Y44538250D02*
X13844512Y44489869D01*
X12489845Y43909298D02*
X12489845Y44441488D01*
X12489845Y44441488D02*
X12538226Y44538250D01*
X12538226Y44538250D02*
X12634988Y44586631D01*
X12634988Y44586631D02*
X12828512Y44586631D01*
X12828512Y44586631D02*
X12925274Y44538250D01*
X12489845Y43957678D02*
X12586607Y43909298D01*
X12586607Y43909298D02*
X12828512Y43909298D01*
X12828512Y43909298D02*
X12925274Y43957678D01*
X12925274Y43957678D02*
X12973655Y44054440D01*
X12973655Y44054440D02*
X12973655Y44151202D01*
X12973655Y44151202D02*
X12925274Y44247964D01*
X12925274Y44247964D02*
X12828512Y44296345D01*
X12828512Y44296345D02*
X12586607Y44296345D01*
X12586607Y44296345D02*
X12489845Y44344726D01*
X12006036Y43909298D02*
X12006036Y44586631D01*
X12006036Y44393107D02*
X11957655Y44489869D01*
X11957655Y44489869D02*
X11909274Y44538250D01*
X11909274Y44538250D02*
X11812512Y44586631D01*
X11812512Y44586631D02*
X11715750Y44586631D01*
X10941655Y43909298D02*
X10941655Y44925298D01*
X10941655Y43957678D02*
X11038417Y43909298D01*
X11038417Y43909298D02*
X11231941Y43909298D01*
X11231941Y43909298D02*
X11328703Y43957678D01*
X11328703Y43957678D02*
X11377084Y44006059D01*
X11377084Y44006059D02*
X11425465Y44102821D01*
X11425465Y44102821D02*
X11425465Y44393107D01*
X11425465Y44393107D02*
X11377084Y44489869D01*
X11377084Y44489869D02*
X11328703Y44538250D01*
X11328703Y44538250D02*
X11231941Y44586631D01*
X11231941Y44586631D02*
X11038417Y44586631D01*
X11038417Y44586631D02*
X10941655Y44538250D01*
X10554608Y44586631D02*
X10361084Y43909298D01*
X10361084Y43909298D02*
X10167560Y44393107D01*
X10167560Y44393107D02*
X9974036Y43909298D01*
X9974036Y43909298D02*
X9780512Y44586631D01*
X8958036Y43909298D02*
X8958036Y44441488D01*
X8958036Y44441488D02*
X9006417Y44538250D01*
X9006417Y44538250D02*
X9103179Y44586631D01*
X9103179Y44586631D02*
X9296703Y44586631D01*
X9296703Y44586631D02*
X9393465Y44538250D01*
X8958036Y43957678D02*
X9054798Y43909298D01*
X9054798Y43909298D02*
X9296703Y43909298D01*
X9296703Y43909298D02*
X9393465Y43957678D01*
X9393465Y43957678D02*
X9441846Y44054440D01*
X9441846Y44054440D02*
X9441846Y44151202D01*
X9441846Y44151202D02*
X9393465Y44247964D01*
X9393465Y44247964D02*
X9296703Y44296345D01*
X9296703Y44296345D02*
X9054798Y44296345D01*
X9054798Y44296345D02*
X8958036Y44344726D01*
X8474227Y43909298D02*
X8474227Y44586631D01*
X8474227Y44393107D02*
X8425846Y44489869D01*
X8425846Y44489869D02*
X8377465Y44538250D01*
X8377465Y44538250D02*
X8280703Y44586631D01*
X8280703Y44586631D02*
X8183941Y44586631D01*
X7458227Y43957678D02*
X7554989Y43909298D01*
X7554989Y43909298D02*
X7748513Y43909298D01*
X7748513Y43909298D02*
X7845275Y43957678D01*
X7845275Y43957678D02*
X7893656Y44054440D01*
X7893656Y44054440D02*
X7893656Y44441488D01*
X7893656Y44441488D02*
X7845275Y44538250D01*
X7845275Y44538250D02*
X7748513Y44586631D01*
X7748513Y44586631D02*
X7554989Y44586631D01*
X7554989Y44586631D02*
X7458227Y44538250D01*
X7458227Y44538250D02*
X7409846Y44441488D01*
X7409846Y44441488D02*
X7409846Y44344726D01*
X7409846Y44344726D02*
X7893656Y44247964D01*
G36*
X26581101Y2037433D02*
G01*
X26638418Y1980116D01*
X26674476Y1835887D01*
X26674476Y1528488D01*
X26638418Y1384260D01*
X26581102Y1326944D01*
X26529591Y1301188D01*
X26396027Y1301188D01*
X26344513Y1326945D01*
X26287199Y1384260D01*
X26251142Y1528488D01*
X26251142Y1835887D01*
X26287199Y1980116D01*
X26344515Y2037433D01*
X26396027Y2063188D01*
X26529591Y2063188D01*
X26581101Y2037433D01*
G37*
G36*
X28089619Y902045D02*
G01*
X25851999Y902045D01*
X25851999Y1512854D01*
X25997142Y1512854D01*
X25998114Y1509542D01*
X26000934Y1482052D01*
X26049315Y1288528D01*
X26057584Y1274434D01*
X26061058Y1258465D01*
X26082720Y1229527D01*
X26179482Y1132766D01*
X26181571Y1131625D01*
X26182788Y1129577D01*
X26212490Y1108975D01*
X26309252Y1060595D01*
X26320582Y1058557D01*
X26330267Y1052332D01*
X26366047Y1047188D01*
X26559571Y1047188D01*
X26570615Y1050432D01*
X26582063Y1049195D01*
X26616366Y1060595D01*
X26713128Y1108975D01*
X26714871Y1110597D01*
X26717198Y1111103D01*
X26746136Y1132765D01*
X26787559Y1174188D01*
X27109904Y1174188D01*
X27110867Y1170908D01*
X27110076Y1167581D01*
X27120878Y1136815D01*
X27130065Y1105527D01*
X27132649Y1103288D01*
X27133782Y1100061D01*
X27159502Y1080020D01*
X27184146Y1058665D01*
X27187531Y1058179D01*
X27190228Y1056077D01*
X27222694Y1053123D01*
X27254978Y1048481D01*
X27258089Y1049902D01*
X27261494Y1049592D01*
X27290411Y1064663D01*
X27320071Y1078208D01*
X27321919Y1081084D01*
X27324953Y1082665D01*
X27347171Y1111178D01*
X27690476Y1711962D01*
X27690476Y1174188D01*
X27710637Y1105527D01*
X27764718Y1058665D01*
X27835550Y1048481D01*
X27900643Y1078208D01*
X27939332Y1138408D01*
X27944476Y1174188D01*
X27944476Y2190188D01*
X27943512Y2193471D01*
X27944303Y2196795D01*
X27933505Y2227550D01*
X27924315Y2258849D01*
X27921730Y2261089D01*
X27920598Y2264314D01*
X27894888Y2284348D01*
X27870234Y2305711D01*
X27866847Y2306198D01*
X27864151Y2308299D01*
X27831686Y2311254D01*
X27799402Y2315895D01*
X27796290Y2314475D01*
X27792886Y2314784D01*
X27763968Y2299714D01*
X27734309Y2286168D01*
X27732460Y2283293D01*
X27729427Y2281711D01*
X27707209Y2253197D01*
X27363904Y1652415D01*
X27363904Y2190188D01*
X27343743Y2258849D01*
X27289662Y2305711D01*
X27218830Y2315895D01*
X27153737Y2286168D01*
X27115048Y2225968D01*
X27109904Y2190188D01*
X27109904Y1174188D01*
X26787559Y1174188D01*
X26842897Y1229527D01*
X26850728Y1243869D01*
X26862635Y1255064D01*
X26876303Y1288528D01*
X26924684Y1482052D01*
X26924543Y1485503D01*
X26928476Y1512854D01*
X26928476Y1851521D01*
X26927503Y1854834D01*
X26924684Y1882323D01*
X26876303Y2075847D01*
X26868033Y2089942D01*
X26864560Y2105910D01*
X26842897Y2134848D01*
X26746136Y2231610D01*
X26744046Y2232752D01*
X26742831Y2234797D01*
X26713129Y2255399D01*
X26616367Y2303780D01*
X26605037Y2305819D01*
X26595351Y2312044D01*
X26559571Y2317188D01*
X26366047Y2317188D01*
X26355001Y2313945D01*
X26343554Y2315181D01*
X26309251Y2303780D01*
X26212489Y2255399D01*
X26210746Y2253779D01*
X26208420Y2253272D01*
X26179482Y2231609D01*
X26082720Y2134848D01*
X26074888Y2120505D01*
X26062983Y2109311D01*
X26049315Y2075847D01*
X26000934Y1882323D01*
X26001074Y1878873D01*
X25997142Y1851521D01*
X25997142Y1512854D01*
X25851999Y1512854D01*
X25851999Y2462331D01*
X28089619Y2462331D01*
X28089619Y902045D01*
G37*
G36*
X38098428Y902045D02*
G01*
X35909513Y902045D01*
X35909513Y1280009D01*
X36054656Y1280009D01*
X36069867Y1210084D01*
X36091529Y1181146D01*
X36139910Y1132765D01*
X36150015Y1127247D01*
X36157236Y1118279D01*
X36189553Y1102085D01*
X36334696Y1053705D01*
X36337073Y1053620D01*
X36339076Y1052332D01*
X36374856Y1047188D01*
X36471618Y1047188D01*
X36473901Y1047859D01*
X36476208Y1047271D01*
X36511778Y1053705D01*
X36656921Y1102085D01*
X36666375Y1108656D01*
X36677626Y1111103D01*
X36706564Y1132765D01*
X36747987Y1174188D01*
X37118713Y1174188D01*
X37119676Y1170908D01*
X37118885Y1167581D01*
X37129687Y1136815D01*
X37138874Y1105527D01*
X37141458Y1103288D01*
X37142591Y1100061D01*
X37168311Y1080020D01*
X37192955Y1058665D01*
X37196340Y1058179D01*
X37199037Y1056077D01*
X37231503Y1053123D01*
X37263787Y1048481D01*
X37266898Y1049902D01*
X37270303Y1049592D01*
X37299220Y1064663D01*
X37328880Y1078208D01*
X37330728Y1081084D01*
X37333762Y1082665D01*
X37355980Y1111178D01*
X37699285Y1711962D01*
X37699285Y1174188D01*
X37719446Y1105527D01*
X37773527Y1058665D01*
X37844359Y1048481D01*
X37909452Y1078208D01*
X37948141Y1138408D01*
X37953285Y1174188D01*
X37953285Y2190188D01*
X37952321Y2193471D01*
X37953112Y2196795D01*
X37942314Y2227550D01*
X37933124Y2258849D01*
X37930539Y2261089D01*
X37929407Y2264314D01*
X37903697Y2284348D01*
X37879043Y2305711D01*
X37875656Y2306198D01*
X37872960Y2308299D01*
X37840495Y2311254D01*
X37808211Y2315895D01*
X37805099Y2314475D01*
X37801695Y2314784D01*
X37772777Y2299714D01*
X37743118Y2286168D01*
X37741269Y2283293D01*
X37738236Y2281711D01*
X37716018Y2253197D01*
X37372713Y1652415D01*
X37372713Y2190188D01*
X37352552Y2258849D01*
X37298471Y2305711D01*
X37227639Y2315895D01*
X37162546Y2286168D01*
X37123857Y2225968D01*
X37118713Y2190188D01*
X37118713Y1174188D01*
X36747987Y1174188D01*
X36803325Y1229527D01*
X36804465Y1231617D01*
X36806513Y1232832D01*
X36827115Y1262534D01*
X36875496Y1359296D01*
X36876284Y1363677D01*
X36885112Y1385290D01*
X36933493Y1578814D01*
X36933352Y1582265D01*
X36937285Y1609616D01*
X36937285Y1754759D01*
X36936312Y1758072D01*
X36933493Y1785561D01*
X36885112Y1979085D01*
X36882859Y1982925D01*
X36875496Y2005079D01*
X36827115Y2101841D01*
X36825494Y2103584D01*
X36824988Y2105910D01*
X36803325Y2134848D01*
X36706564Y2231610D01*
X36696458Y2237128D01*
X36689239Y2246095D01*
X36656922Y2262290D01*
X36511779Y2310671D01*
X36509400Y2310758D01*
X36507398Y2312044D01*
X36471618Y2317188D01*
X36374856Y2317188D01*
X36372571Y2316518D01*
X36370265Y2317105D01*
X36334695Y2310671D01*
X36189552Y2262290D01*
X36180097Y2255720D01*
X36168848Y2253272D01*
X36139910Y2231610D01*
X36091529Y2183229D01*
X36057235Y2120422D01*
X36062339Y2049044D01*
X36105224Y1991757D01*
X36172272Y1966750D01*
X36242197Y1981961D01*
X36271135Y2003623D01*
X36298317Y2030805D01*
X36395466Y2063188D01*
X36451008Y2063188D01*
X36548157Y2030805D01*
X36609148Y1969815D01*
X36642077Y1903957D01*
X36683285Y1739125D01*
X36683285Y1625250D01*
X36642077Y1460418D01*
X36609148Y1394561D01*
X36548157Y1333570D01*
X36451009Y1301188D01*
X36395465Y1301188D01*
X36298317Y1333570D01*
X36271135Y1360752D01*
X36208328Y1395046D01*
X36136950Y1389942D01*
X36079663Y1347057D01*
X36054656Y1280009D01*
X35909513Y1280009D01*
X35909513Y2462331D01*
X38098428Y2462331D01*
X38098428Y902045D01*
G37*
G36*
X32265863Y2037433D02*
G01*
X32323180Y1980116D01*
X32359238Y1835887D01*
X32359238Y1528488D01*
X32323180Y1384260D01*
X32265864Y1326944D01*
X32214353Y1301188D01*
X32080789Y1301188D01*
X32029275Y1326945D01*
X31971961Y1384260D01*
X31935904Y1528488D01*
X31935904Y1835887D01*
X31971961Y1980116D01*
X32029277Y2037433D01*
X32080789Y2063188D01*
X32214353Y2063188D01*
X32265863Y2037433D01*
G37*
G36*
X33774381Y902045D02*
G01*
X30423999Y902045D01*
X30423999Y1174188D01*
X30569142Y1174188D01*
X30589303Y1105527D01*
X30643384Y1058665D01*
X30714216Y1048481D01*
X30779309Y1078208D01*
X30817998Y1138408D01*
X30823142Y1174188D01*
X30823142Y1617729D01*
X30919724Y1410767D01*
X30931117Y1397835D01*
X30938148Y1382099D01*
X30954282Y1371542D01*
X30967029Y1357073D01*
X30983606Y1352354D01*
X30998028Y1342916D01*
X31017308Y1342758D01*
X31035854Y1337477D01*
X31052350Y1342469D01*
X31069585Y1342327D01*
X31085892Y1352619D01*
X31104347Y1358203D01*
X31115524Y1371320D01*
X31130102Y1380519D01*
X31149894Y1410767D01*
X31246476Y1617729D01*
X31246476Y1174188D01*
X31266637Y1105527D01*
X31320718Y1058665D01*
X31391550Y1048481D01*
X31456643Y1078208D01*
X31495332Y1138408D01*
X31500476Y1174188D01*
X31500476Y1512854D01*
X31681904Y1512854D01*
X31682876Y1509542D01*
X31685696Y1482052D01*
X31734077Y1288528D01*
X31742346Y1274434D01*
X31745820Y1258465D01*
X31767482Y1229527D01*
X31864244Y1132766D01*
X31866333Y1131625D01*
X31867550Y1129577D01*
X31897252Y1108975D01*
X31994014Y1060595D01*
X32005344Y1058557D01*
X32015029Y1052332D01*
X32050809Y1047188D01*
X32244333Y1047188D01*
X32255377Y1050432D01*
X32266825Y1049195D01*
X32301128Y1060595D01*
X32397890Y1108975D01*
X32399633Y1110597D01*
X32401960Y1111103D01*
X32430898Y1132765D01*
X32527659Y1229527D01*
X32535490Y1243869D01*
X32547397Y1255064D01*
X32557586Y1280009D01*
X32746609Y1280009D01*
X32761820Y1210084D01*
X32783482Y1181146D01*
X32831863Y1132765D01*
X32841968Y1127247D01*
X32849189Y1118279D01*
X32881506Y1102085D01*
X33026649Y1053705D01*
X33029026Y1053620D01*
X33031029Y1052332D01*
X33066809Y1047188D01*
X33163571Y1047188D01*
X33165854Y1047859D01*
X33168161Y1047271D01*
X33203731Y1053705D01*
X33348874Y1102085D01*
X33358328Y1108656D01*
X33369579Y1111103D01*
X33398517Y1132765D01*
X33495278Y1229527D01*
X33496418Y1231617D01*
X33498466Y1232832D01*
X33519068Y1262534D01*
X33567449Y1359296D01*
X33568237Y1363677D01*
X33577065Y1385290D01*
X33625446Y1578814D01*
X33625305Y1582265D01*
X33629238Y1609616D01*
X33629238Y1754759D01*
X33628265Y1758072D01*
X33625446Y1785561D01*
X33577065Y1979085D01*
X33574812Y1982925D01*
X33567449Y2005079D01*
X33519068Y2101841D01*
X33517447Y2103584D01*
X33516941Y2105910D01*
X33495278Y2134848D01*
X33398517Y2231610D01*
X33388411Y2237128D01*
X33381192Y2246095D01*
X33348875Y2262290D01*
X33203732Y2310671D01*
X33201353Y2310758D01*
X33199351Y2312044D01*
X33163571Y2317188D01*
X33066809Y2317188D01*
X33064524Y2316518D01*
X33062218Y2317105D01*
X33026648Y2310671D01*
X32881505Y2262290D01*
X32872050Y2255720D01*
X32860801Y2253272D01*
X32831863Y2231610D01*
X32783482Y2183229D01*
X32749188Y2120422D01*
X32754292Y2049044D01*
X32797177Y1991757D01*
X32864225Y1966750D01*
X32934150Y1981961D01*
X32963088Y2003623D01*
X32990270Y2030805D01*
X33087419Y2063188D01*
X33142961Y2063188D01*
X33240110Y2030805D01*
X33301101Y1969815D01*
X33334030Y1903957D01*
X33375238Y1739125D01*
X33375238Y1625250D01*
X33334030Y1460418D01*
X33301101Y1394561D01*
X33240110Y1333570D01*
X33142962Y1301188D01*
X33087418Y1301188D01*
X32990270Y1333570D01*
X32963088Y1360752D01*
X32900281Y1395046D01*
X32828903Y1389942D01*
X32771616Y1347057D01*
X32746609Y1280009D01*
X32557586Y1280009D01*
X32561065Y1288528D01*
X32609446Y1482052D01*
X32609305Y1485503D01*
X32613238Y1512854D01*
X32613238Y1851521D01*
X32612265Y1854834D01*
X32609446Y1882323D01*
X32561065Y2075847D01*
X32552795Y2089942D01*
X32549322Y2105910D01*
X32527659Y2134848D01*
X32430898Y2231610D01*
X32428808Y2232752D01*
X32427593Y2234797D01*
X32397891Y2255399D01*
X32301129Y2303780D01*
X32289799Y2305819D01*
X32280113Y2312044D01*
X32244333Y2317188D01*
X32050809Y2317188D01*
X32039763Y2313945D01*
X32028316Y2315181D01*
X31994013Y2303780D01*
X31897251Y2255399D01*
X31895508Y2253779D01*
X31893182Y2253272D01*
X31864244Y2231609D01*
X31767482Y2134848D01*
X31759650Y2120505D01*
X31747745Y2109311D01*
X31734077Y2075847D01*
X31685696Y1882323D01*
X31685836Y1878873D01*
X31681904Y1851521D01*
X31681904Y1512854D01*
X31500476Y1512854D01*
X31500476Y2190188D01*
X31498011Y2198582D01*
X31499327Y2207227D01*
X31488082Y2232395D01*
X31480315Y2258849D01*
X31473704Y2264578D01*
X31470137Y2272562D01*
X31447070Y2287656D01*
X31426234Y2305711D01*
X31417575Y2306956D01*
X31410257Y2311745D01*
X31382687Y2311972D01*
X31355402Y2315895D01*
X31347446Y2312263D01*
X31338700Y2312334D01*
X31315383Y2297620D01*
X31290309Y2286168D01*
X31285580Y2278811D01*
X31278183Y2274142D01*
X31258391Y2243894D01*
X31034809Y1764790D01*
X30811227Y2243894D01*
X30805445Y2250457D01*
X30802981Y2258849D01*
X30782145Y2276904D01*
X30763922Y2297588D01*
X30755510Y2299983D01*
X30748900Y2305711D01*
X30721613Y2309635D01*
X30695097Y2317184D01*
X30686724Y2314651D01*
X30678068Y2315895D01*
X30652991Y2304443D01*
X30626604Y2296458D01*
X30620931Y2289802D01*
X30612975Y2286168D01*
X30598068Y2262974D01*
X30580189Y2241993D01*
X30579015Y2233328D01*
X30574286Y2225968D01*
X30569142Y2190188D01*
X30569142Y1174188D01*
X30423999Y1174188D01*
X30423999Y2462331D01*
X33774381Y2462331D01*
X33774381Y902045D01*
G37*
G36*
X15628863Y2037433D02*
G01*
X15686180Y1980116D01*
X15722238Y1835887D01*
X15722238Y1528488D01*
X15686180Y1384260D01*
X15628864Y1326944D01*
X15577353Y1301188D01*
X15443789Y1301188D01*
X15392275Y1326945D01*
X15334961Y1384260D01*
X15298904Y1528488D01*
X15298904Y1835887D01*
X15334961Y1980116D01*
X15392277Y2037433D01*
X15443789Y2063188D01*
X15577353Y2063188D01*
X15628863Y2037433D01*
G37*
G36*
X17137381Y902045D02*
G01*
X13786999Y902045D01*
X13786999Y1174188D01*
X13932142Y1174188D01*
X13952303Y1105527D01*
X14006384Y1058665D01*
X14077216Y1048481D01*
X14142309Y1078208D01*
X14180998Y1138408D01*
X14186142Y1174188D01*
X14186142Y1617729D01*
X14282724Y1410767D01*
X14294117Y1397835D01*
X14301148Y1382099D01*
X14317282Y1371542D01*
X14330029Y1357073D01*
X14346606Y1352354D01*
X14361028Y1342916D01*
X14380308Y1342758D01*
X14398854Y1337477D01*
X14415350Y1342469D01*
X14432585Y1342327D01*
X14448892Y1352619D01*
X14467347Y1358203D01*
X14478524Y1371320D01*
X14493102Y1380519D01*
X14512894Y1410767D01*
X14609476Y1617729D01*
X14609476Y1174188D01*
X14629637Y1105527D01*
X14683718Y1058665D01*
X14754550Y1048481D01*
X14819643Y1078208D01*
X14858332Y1138408D01*
X14863476Y1174188D01*
X14863476Y1512854D01*
X15044904Y1512854D01*
X15045876Y1509542D01*
X15048696Y1482052D01*
X15097077Y1288528D01*
X15105346Y1274434D01*
X15108820Y1258465D01*
X15130482Y1229527D01*
X15227244Y1132766D01*
X15229333Y1131625D01*
X15230550Y1129577D01*
X15260252Y1108975D01*
X15357014Y1060595D01*
X15368344Y1058557D01*
X15378029Y1052332D01*
X15413809Y1047188D01*
X15607333Y1047188D01*
X15618377Y1050432D01*
X15629825Y1049195D01*
X15664128Y1060595D01*
X15760890Y1108975D01*
X15762633Y1110597D01*
X15764960Y1111103D01*
X15793898Y1132765D01*
X15890659Y1229527D01*
X15898490Y1243869D01*
X15910397Y1255064D01*
X15920586Y1280009D01*
X16109609Y1280009D01*
X16124820Y1210084D01*
X16146482Y1181146D01*
X16194863Y1132765D01*
X16204968Y1127247D01*
X16212189Y1118279D01*
X16244506Y1102085D01*
X16389649Y1053705D01*
X16392026Y1053620D01*
X16394029Y1052332D01*
X16429809Y1047188D01*
X16526571Y1047188D01*
X16528854Y1047859D01*
X16531161Y1047271D01*
X16566731Y1053705D01*
X16711874Y1102085D01*
X16721328Y1108656D01*
X16732579Y1111103D01*
X16761517Y1132765D01*
X16858278Y1229527D01*
X16859418Y1231617D01*
X16861466Y1232832D01*
X16882068Y1262534D01*
X16930449Y1359296D01*
X16931237Y1363677D01*
X16940065Y1385290D01*
X16988446Y1578814D01*
X16988305Y1582265D01*
X16992238Y1609616D01*
X16992238Y1754759D01*
X16991265Y1758072D01*
X16988446Y1785561D01*
X16940065Y1979085D01*
X16937812Y1982925D01*
X16930449Y2005079D01*
X16882068Y2101841D01*
X16880447Y2103584D01*
X16879941Y2105910D01*
X16858278Y2134848D01*
X16761517Y2231610D01*
X16751411Y2237128D01*
X16744192Y2246095D01*
X16711875Y2262290D01*
X16566732Y2310671D01*
X16564353Y2310758D01*
X16562351Y2312044D01*
X16526571Y2317188D01*
X16429809Y2317188D01*
X16427524Y2316518D01*
X16425218Y2317105D01*
X16389648Y2310671D01*
X16244505Y2262290D01*
X16235050Y2255720D01*
X16223801Y2253272D01*
X16194863Y2231610D01*
X16146482Y2183229D01*
X16112188Y2120422D01*
X16117292Y2049044D01*
X16160177Y1991757D01*
X16227225Y1966750D01*
X16297150Y1981961D01*
X16326088Y2003623D01*
X16353270Y2030805D01*
X16450419Y2063188D01*
X16505961Y2063188D01*
X16603110Y2030805D01*
X16664101Y1969815D01*
X16697030Y1903957D01*
X16738238Y1739125D01*
X16738238Y1625250D01*
X16697030Y1460418D01*
X16664101Y1394561D01*
X16603110Y1333570D01*
X16505962Y1301188D01*
X16450418Y1301188D01*
X16353270Y1333570D01*
X16326088Y1360752D01*
X16263281Y1395046D01*
X16191903Y1389942D01*
X16134616Y1347057D01*
X16109609Y1280009D01*
X15920586Y1280009D01*
X15924065Y1288528D01*
X15972446Y1482052D01*
X15972305Y1485503D01*
X15976238Y1512854D01*
X15976238Y1851521D01*
X15975265Y1854834D01*
X15972446Y1882323D01*
X15924065Y2075847D01*
X15915795Y2089942D01*
X15912322Y2105910D01*
X15890659Y2134848D01*
X15793898Y2231610D01*
X15791808Y2232752D01*
X15790593Y2234797D01*
X15760891Y2255399D01*
X15664129Y2303780D01*
X15652799Y2305819D01*
X15643113Y2312044D01*
X15607333Y2317188D01*
X15413809Y2317188D01*
X15402763Y2313945D01*
X15391316Y2315181D01*
X15357013Y2303780D01*
X15260251Y2255399D01*
X15258508Y2253779D01*
X15256182Y2253272D01*
X15227244Y2231609D01*
X15130482Y2134848D01*
X15122650Y2120505D01*
X15110745Y2109311D01*
X15097077Y2075847D01*
X15048696Y1882323D01*
X15048836Y1878873D01*
X15044904Y1851521D01*
X15044904Y1512854D01*
X14863476Y1512854D01*
X14863476Y2190188D01*
X14861011Y2198582D01*
X14862327Y2207227D01*
X14851082Y2232395D01*
X14843315Y2258849D01*
X14836704Y2264578D01*
X14833137Y2272562D01*
X14810070Y2287656D01*
X14789234Y2305711D01*
X14780575Y2306956D01*
X14773257Y2311745D01*
X14745687Y2311972D01*
X14718402Y2315895D01*
X14710446Y2312263D01*
X14701700Y2312334D01*
X14678383Y2297620D01*
X14653309Y2286168D01*
X14648580Y2278811D01*
X14641183Y2274142D01*
X14621391Y2243894D01*
X14397809Y1764790D01*
X14174227Y2243894D01*
X14168445Y2250457D01*
X14165981Y2258849D01*
X14145145Y2276904D01*
X14126922Y2297588D01*
X14118510Y2299983D01*
X14111900Y2305711D01*
X14084613Y2309635D01*
X14058097Y2317184D01*
X14049724Y2314651D01*
X14041068Y2315895D01*
X14015991Y2304443D01*
X13989604Y2296458D01*
X13983931Y2289802D01*
X13975975Y2286168D01*
X13961068Y2262974D01*
X13943189Y2241993D01*
X13942015Y2233328D01*
X13937286Y2225968D01*
X13932142Y2190188D01*
X13932142Y1174188D01*
X13786999Y1174188D01*
X13786999Y2462331D01*
X17137381Y2462331D01*
X17137381Y902045D01*
G37*
G36*
X21588428Y902045D02*
G01*
X19399513Y902045D01*
X19399513Y1280009D01*
X19544656Y1280009D01*
X19559867Y1210084D01*
X19581529Y1181146D01*
X19629910Y1132765D01*
X19640015Y1127247D01*
X19647236Y1118279D01*
X19679553Y1102085D01*
X19824696Y1053705D01*
X19827073Y1053620D01*
X19829076Y1052332D01*
X19864856Y1047188D01*
X19961618Y1047188D01*
X19963901Y1047859D01*
X19966208Y1047271D01*
X20001778Y1053705D01*
X20146921Y1102085D01*
X20156375Y1108656D01*
X20167626Y1111103D01*
X20196564Y1132765D01*
X20237987Y1174188D01*
X20608713Y1174188D01*
X20609676Y1170908D01*
X20608885Y1167581D01*
X20619687Y1136815D01*
X20628874Y1105527D01*
X20631458Y1103288D01*
X20632591Y1100061D01*
X20658311Y1080020D01*
X20682955Y1058665D01*
X20686340Y1058179D01*
X20689037Y1056077D01*
X20721503Y1053123D01*
X20753787Y1048481D01*
X20756898Y1049902D01*
X20760303Y1049592D01*
X20789220Y1064663D01*
X20818880Y1078208D01*
X20820728Y1081084D01*
X20823762Y1082665D01*
X20845980Y1111178D01*
X21189285Y1711962D01*
X21189285Y1174188D01*
X21209446Y1105527D01*
X21263527Y1058665D01*
X21334359Y1048481D01*
X21399452Y1078208D01*
X21438141Y1138408D01*
X21443285Y1174188D01*
X21443285Y2190188D01*
X21442321Y2193471D01*
X21443112Y2196795D01*
X21432314Y2227550D01*
X21423124Y2258849D01*
X21420539Y2261089D01*
X21419407Y2264314D01*
X21393697Y2284348D01*
X21369043Y2305711D01*
X21365656Y2306198D01*
X21362960Y2308299D01*
X21330495Y2311254D01*
X21298211Y2315895D01*
X21295099Y2314475D01*
X21291695Y2314784D01*
X21262777Y2299714D01*
X21233118Y2286168D01*
X21231269Y2283293D01*
X21228236Y2281711D01*
X21206018Y2253197D01*
X20862713Y1652415D01*
X20862713Y2190188D01*
X20842552Y2258849D01*
X20788471Y2305711D01*
X20717639Y2315895D01*
X20652546Y2286168D01*
X20613857Y2225968D01*
X20608713Y2190188D01*
X20608713Y1174188D01*
X20237987Y1174188D01*
X20293325Y1229527D01*
X20294465Y1231617D01*
X20296513Y1232832D01*
X20317115Y1262534D01*
X20365496Y1359296D01*
X20366284Y1363677D01*
X20375112Y1385290D01*
X20423493Y1578814D01*
X20423352Y1582265D01*
X20427285Y1609616D01*
X20427285Y1754759D01*
X20426312Y1758072D01*
X20423493Y1785561D01*
X20375112Y1979085D01*
X20372859Y1982925D01*
X20365496Y2005079D01*
X20317115Y2101841D01*
X20315494Y2103584D01*
X20314988Y2105910D01*
X20293325Y2134848D01*
X20196564Y2231610D01*
X20186458Y2237128D01*
X20179239Y2246095D01*
X20146922Y2262290D01*
X20001779Y2310671D01*
X19999400Y2310758D01*
X19997398Y2312044D01*
X19961618Y2317188D01*
X19864856Y2317188D01*
X19862571Y2316518D01*
X19860265Y2317105D01*
X19824695Y2310671D01*
X19679552Y2262290D01*
X19670097Y2255720D01*
X19658848Y2253272D01*
X19629910Y2231610D01*
X19581529Y2183229D01*
X19547235Y2120422D01*
X19552339Y2049044D01*
X19595224Y1991757D01*
X19662272Y1966750D01*
X19732197Y1981961D01*
X19761135Y2003623D01*
X19788317Y2030805D01*
X19885466Y2063188D01*
X19941008Y2063188D01*
X20038157Y2030805D01*
X20099148Y1969815D01*
X20132077Y1903957D01*
X20173285Y1739125D01*
X20173285Y1625250D01*
X20132077Y1460418D01*
X20099148Y1394561D01*
X20038157Y1333570D01*
X19941009Y1301188D01*
X19885465Y1301188D01*
X19788317Y1333570D01*
X19761135Y1360752D01*
X19698328Y1395046D01*
X19626950Y1389942D01*
X19569663Y1347057D01*
X19544656Y1280009D01*
X19399513Y1280009D01*
X19399513Y2462331D01*
X21588428Y2462331D01*
X21588428Y902045D01*
G37*
G36*
X10071101Y2037433D02*
G01*
X10128418Y1980116D01*
X10164476Y1835887D01*
X10164476Y1528488D01*
X10128418Y1384260D01*
X10071102Y1326944D01*
X10019591Y1301188D01*
X9886027Y1301188D01*
X9834513Y1326945D01*
X9777199Y1384260D01*
X9741142Y1528488D01*
X9741142Y1835887D01*
X9777199Y1980116D01*
X9834515Y2037433D01*
X9886027Y2063188D01*
X10019591Y2063188D01*
X10071101Y2037433D01*
G37*
G36*
X11579619Y902045D02*
G01*
X9341999Y902045D01*
X9341999Y1512854D01*
X9487142Y1512854D01*
X9488114Y1509542D01*
X9490934Y1482052D01*
X9539315Y1288528D01*
X9547584Y1274434D01*
X9551058Y1258465D01*
X9572720Y1229527D01*
X9669482Y1132766D01*
X9671571Y1131625D01*
X9672788Y1129577D01*
X9702490Y1108975D01*
X9799252Y1060595D01*
X9810582Y1058557D01*
X9820267Y1052332D01*
X9856047Y1047188D01*
X10049571Y1047188D01*
X10060615Y1050432D01*
X10072063Y1049195D01*
X10106366Y1060595D01*
X10203128Y1108975D01*
X10204871Y1110597D01*
X10207198Y1111103D01*
X10236136Y1132765D01*
X10277559Y1174188D01*
X10599904Y1174188D01*
X10600867Y1170908D01*
X10600076Y1167581D01*
X10610878Y1136815D01*
X10620065Y1105527D01*
X10622649Y1103288D01*
X10623782Y1100061D01*
X10649502Y1080020D01*
X10674146Y1058665D01*
X10677531Y1058179D01*
X10680228Y1056077D01*
X10712694Y1053123D01*
X10744978Y1048481D01*
X10748089Y1049902D01*
X10751494Y1049592D01*
X10780411Y1064663D01*
X10810071Y1078208D01*
X10811919Y1081084D01*
X10814953Y1082665D01*
X10837171Y1111178D01*
X11180476Y1711962D01*
X11180476Y1174188D01*
X11200637Y1105527D01*
X11254718Y1058665D01*
X11325550Y1048481D01*
X11390643Y1078208D01*
X11429332Y1138408D01*
X11434476Y1174188D01*
X11434476Y2190188D01*
X11433512Y2193471D01*
X11434303Y2196795D01*
X11423505Y2227550D01*
X11414315Y2258849D01*
X11411730Y2261089D01*
X11410598Y2264314D01*
X11384888Y2284348D01*
X11360234Y2305711D01*
X11356847Y2306198D01*
X11354151Y2308299D01*
X11321686Y2311254D01*
X11289402Y2315895D01*
X11286290Y2314475D01*
X11282886Y2314784D01*
X11253968Y2299714D01*
X11224309Y2286168D01*
X11222460Y2283293D01*
X11219427Y2281711D01*
X11197209Y2253197D01*
X10853904Y1652415D01*
X10853904Y2190188D01*
X10833743Y2258849D01*
X10779662Y2305711D01*
X10708830Y2315895D01*
X10643737Y2286168D01*
X10605048Y2225968D01*
X10599904Y2190188D01*
X10599904Y1174188D01*
X10277559Y1174188D01*
X10332897Y1229527D01*
X10340728Y1243869D01*
X10352635Y1255064D01*
X10366303Y1288528D01*
X10414684Y1482052D01*
X10414543Y1485503D01*
X10418476Y1512854D01*
X10418476Y1851521D01*
X10417503Y1854834D01*
X10414684Y1882323D01*
X10366303Y2075847D01*
X10358033Y2089942D01*
X10354560Y2105910D01*
X10332897Y2134848D01*
X10236136Y2231610D01*
X10234046Y2232752D01*
X10232831Y2234797D01*
X10203129Y2255399D01*
X10106367Y2303780D01*
X10095037Y2305819D01*
X10085351Y2312044D01*
X10049571Y2317188D01*
X9856047Y2317188D01*
X9845001Y2313945D01*
X9833554Y2315181D01*
X9799251Y2303780D01*
X9702489Y2255399D01*
X9700746Y2253779D01*
X9698420Y2253272D01*
X9669482Y2231609D01*
X9572720Y2134848D01*
X9564888Y2120505D01*
X9552983Y2109311D01*
X9539315Y2075847D01*
X9490934Y1882323D01*
X9491074Y1878873D01*
X9487142Y1851521D01*
X9487142Y1512854D01*
X9341999Y1512854D01*
X9341999Y2462331D01*
X11579619Y2462331D01*
X11579619Y902045D01*
G37*
%TO.C,Sign_RoHS_1*%
X55569978Y48427960D02*
G75*
G03*
X55883947Y47670027I1071922J40D01*
G01*
X55641103Y48796267D02*
G75*
G03*
X55570283Y48427513I922097J-368267D01*
G01*
X55641110Y48796264D02*
G75*
G03*
X55705148Y49730864I-1414810J566436D01*
G01*
X55907832Y47648194D02*
G75*
G03*
X56487497Y47374547I784868J911806D01*
G01*
X56489480Y47373862D02*
G75*
G03*
X56688927Y47349697I198120J800038D01*
G01*
X56509797Y48499080D02*
G75*
G03*
X56155794Y49489934I-1762767J-71120D01*
G01*
X56535195Y48151099D02*
G75*
G03*
X57037340Y47355387I1211605J208301D01*
G01*
X56916200Y48544800D02*
G75*
G03*
X57326340Y47447954I1529080J-53340D01*
G01*
X56916199Y48552420D02*
G75*
G03*
X56409020Y49583819I-1498599J-96520D01*
G01*
X57299712Y47475432D02*
G75*
G03*
X57603788Y47349209I304788J304868D01*
G01*
X57602011Y47477989D02*
G75*
G03*
X57855555Y48088629I-612111J612111D01*
G01*
X57729009Y49065505D02*
G75*
G03*
X57007000Y49709489I-1323309J-756905D01*
G01*
X57736606Y47216366D02*
G75*
G03*
X58028720Y47095388I292094J292134D01*
G01*
X57899180Y47770100D02*
G75*
G03*
X57984874Y48214099I-1109980J444500D01*
G01*
X57982999Y48214600D02*
G75*
G03*
X57782793Y48969679I-1523999J0D01*
G01*
X58028720Y47096998D02*
G75*
G03*
X58386134Y47245046I-20J505502D01*
G01*
X58424965Y50188179D02*
G75*
G03*
X58364760Y49510757I2989535J-607079D01*
G01*
X58490981Y47686280D02*
G75*
G03*
X58996979Y46461721I1734819J20D01*
G01*
X58490965Y47732000D02*
G75*
G03*
X58759257Y47079289I922035J-2500D01*
G01*
X58491000Y47859000D02*
G75*
G03*
X58938549Y46773441I1534160J-2540D01*
G01*
X58610380Y48796260D02*
G75*
G03*
X58490154Y47858931I642620J-558800D01*
G01*
X58872000Y45573000D02*
G75*
G03*
X60396000Y44049000I1524000J0D01*
G01*
X59425713Y50203430D02*
G75*
G03*
X58370642Y49133234I2776287J-3792230D01*
G01*
X59486680Y48133320D02*
G75*
G03*
X58767860Y48135860I-360680J-358120D01*
G01*
X59540012Y48079972D02*
G75*
G03*
X60078500Y47856934I538488J538528D01*
G01*
X60396000Y47097000D02*
G75*
G03*
X58872000Y45573000I0J-1524000D01*
G01*
X60594119Y47858986D02*
G75*
G03*
X62459933Y48524988I126981J2590814D01*
G01*
X60622060Y52304000D02*
G75*
G03*
X58571736Y50791415I93980J-2273300D01*
G01*
X60700801Y50711414D02*
G75*
G03*
X59437130Y50211066I871199J-4046214D01*
G01*
X61218959Y50785088D02*
G75*
G03*
X62561379Y51000814I-469859J7208512D01*
G01*
X61335802Y50254210D02*
G75*
G03*
X58781474Y48984843I1099798J-5417810D01*
G01*
X61645679Y50315191D02*
G75*
G03*
X63672541Y51065222I-604479J4747209D01*
G01*
X62499132Y48562566D02*
G75*
G03*
X64480464Y50944553I-6362732J7307534D01*
G01*
X62770900Y52108419D02*
G75*
G03*
X64485952Y52448479I447040J2240271D01*
G01*
X72207000Y44049000D02*
G75*
G03*
X73731000Y45573000I0J1524000D01*
G01*
X73731000Y45573000D02*
G75*
G03*
X72207000Y47097000I-1523999J1D01*
G01*
X55570000Y50272000D02*
X55704620Y49733520D01*
X55824000Y49637000D02*
X55951000Y49637000D01*
X55884960Y47671040D02*
X55907820Y47648180D01*
X55951000Y49637000D02*
X55951000Y49129000D01*
X55951000Y49637000D02*
X56078000Y49637000D01*
X56078000Y49637000D02*
X56078000Y49129000D01*
X56078000Y49637000D02*
X56967000Y49637000D01*
X56205000Y50018000D02*
X55697000Y50018000D01*
X56332000Y49002000D02*
X55824000Y49002000D01*
X56332000Y49129000D02*
X55824000Y49129000D01*
X56332000Y49891000D02*
X55697000Y49891000D01*
X56459000Y48113000D02*
X55697000Y48113000D01*
X56459000Y48240000D02*
X55697000Y48240000D01*
X56459000Y48367000D02*
X55697000Y48367000D01*
X56459000Y48494000D02*
X55697000Y48494000D01*
X56459000Y48621000D02*
X55697000Y48621000D01*
X56459000Y48748000D02*
X55697000Y48748000D01*
X56459000Y48875000D02*
X55824000Y48875000D01*
X56509800Y48542260D02*
X56535200Y48151100D01*
X56535200Y47986000D02*
X55697000Y47986000D01*
X56586000Y47732000D02*
X55951000Y47732000D01*
X56586000Y47859000D02*
X55824000Y47859000D01*
X56586000Y49510000D02*
X57094000Y49510000D01*
X56586000Y49764000D02*
X55824000Y49764000D01*
X56586000Y49891000D02*
X55570000Y50272000D01*
X56687600Y47351000D02*
X57043200Y47351000D01*
X56713000Y47605000D02*
X56078000Y47605000D01*
X56713000Y49256000D02*
X57475000Y49256000D01*
X56713000Y49383000D02*
X57348000Y49383000D01*
X56840000Y47478000D02*
X56332000Y47478000D01*
X56840000Y49002000D02*
X57729000Y49002000D01*
X56840000Y49129000D02*
X57602000Y49129000D01*
X56916200Y48544800D02*
X56916200Y48552420D01*
X56967000Y48367000D02*
X57475000Y47478000D01*
X56967000Y48494000D02*
X57856000Y48494000D01*
X56967000Y48621000D02*
X57856000Y48621000D01*
X56967000Y48748000D02*
X57729000Y48748000D01*
X56967000Y48875000D02*
X57729000Y48875000D01*
X57007640Y49710660D02*
X56586000Y49891000D01*
X57221000Y48367000D02*
X56967000Y48367000D01*
X57221000Y48367000D02*
X57221000Y47859000D01*
X57299740Y47475460D02*
X57327680Y47447520D01*
X57589300Y47351000D02*
X57602000Y47351000D01*
X57602000Y47351000D02*
X57899180Y47770100D01*
X57602000Y48367000D02*
X57221000Y48367000D01*
X57602000Y48367000D02*
X57602000Y47732000D01*
X57729000Y47732000D02*
X57221000Y47732000D01*
X57729000Y47732000D02*
X57729000Y47605000D01*
X57729000Y47859000D02*
X57094000Y47859000D01*
X57729000Y47859000D02*
X57729000Y47732000D01*
X57729000Y48240000D02*
X57094000Y48240000D01*
X57729000Y48240000D02*
X57729000Y47859000D01*
X57729000Y48367000D02*
X57602000Y48367000D01*
X57729000Y48367000D02*
X57729000Y48240000D01*
X57736620Y47216380D02*
X57602000Y47351000D01*
X57782340Y48971520D02*
X57729000Y49065500D01*
X57856000Y47986000D02*
X57094000Y47986000D01*
X57856000Y48090140D02*
X57856000Y48113000D01*
X57856000Y48113000D02*
X57094000Y48113000D01*
X57856000Y48113000D02*
X57856000Y48367000D01*
X57856000Y48367000D02*
X57729000Y48367000D01*
X58366540Y49129000D02*
X58369080Y49131540D01*
X58366540Y49510000D02*
X58366540Y49129000D01*
X58468140Y47904720D02*
X58491000Y47859000D01*
X58491000Y47351000D02*
X58386860Y47244320D01*
X58491000Y47686280D02*
X58491000Y47732000D01*
X58572280Y50787620D02*
X58424960Y50188180D01*
D13*
X58618000Y48240000D02*
X58872000Y48748000D01*
X58618000Y49637000D02*
X59126000Y50272000D01*
X58745000Y50653000D02*
X58618000Y49637000D01*
D10*
X58767860Y48133320D02*
X58491000Y47859000D01*
X58780560Y48984220D02*
X58610380Y48796260D01*
D13*
X58872000Y48494000D02*
X58618000Y48240000D01*
X58872000Y48748000D02*
X59380000Y49256000D01*
X58999000Y51161000D02*
X58745000Y50653000D01*
D10*
X59126000Y46462000D02*
X58618000Y47224000D01*
X59126000Y46589000D02*
X58940580Y46774420D01*
D13*
X59126000Y50272000D02*
X59761000Y50653000D01*
D10*
X59253000Y46589000D02*
X58762780Y47079220D01*
D13*
X59253000Y48621000D02*
X58872000Y48494000D01*
X59380000Y49256000D02*
X60065800Y49662400D01*
X59380000Y51034000D02*
X61031000Y51034000D01*
D10*
X59425720Y50203420D02*
X59433340Y50208500D01*
D13*
X59507000Y48875000D02*
X59634000Y48621000D01*
X59507000Y51161000D02*
X59126000Y50653000D01*
X59507000Y51161000D02*
X59507000Y51415000D01*
X59507000Y51415000D02*
X64460000Y51491200D01*
X59507000Y51669000D02*
X58999000Y51161000D01*
X59507000Y51669000D02*
X59507000Y51415000D01*
D10*
X59540020Y48079980D02*
X59486680Y48133320D01*
D13*
X59634000Y48621000D02*
X59888000Y48621000D01*
X59634000Y49002000D02*
X59507000Y48875000D01*
X59761000Y50653000D02*
X59507000Y51161000D01*
X59888000Y48621000D02*
X60269000Y48494000D01*
X59888000Y50653000D02*
X60523000Y51034000D01*
X60015000Y48113000D02*
X59253000Y48621000D01*
X60065800Y49662400D02*
X61462800Y50145000D01*
X60142000Y48875000D02*
X60269000Y48748000D01*
X60142000Y49002000D02*
X60142000Y48875000D01*
X60142000Y52050000D02*
X59507000Y51669000D01*
X60269000Y48494000D02*
X60904000Y48494000D01*
X60269000Y48748000D02*
X60650000Y48875000D01*
X60269000Y49510000D02*
X59634000Y49002000D01*
D10*
X60396000Y47097000D02*
X72207000Y47097000D01*
D13*
X60523000Y51034000D02*
X61031000Y51034000D01*
D10*
X60594120Y47859000D02*
X60078500Y47859000D01*
D13*
X60650000Y48875000D02*
X61920000Y49129000D01*
X60650000Y49256000D02*
X60142000Y49002000D01*
D10*
X60700800Y50711420D02*
X61218960Y50785080D01*
D13*
X60904000Y48113000D02*
X60015000Y48113000D01*
X60904000Y48494000D02*
X61285000Y48621000D01*
X60904000Y49256000D02*
X60650000Y49256000D01*
X61031000Y51034000D02*
X61158000Y51034000D01*
X61158000Y51034000D02*
X62301000Y51161000D01*
X61285000Y48621000D02*
X61793000Y48748000D01*
X61285000Y49764000D02*
X60269000Y49510000D01*
X61462800Y50145000D02*
X62072400Y50145000D01*
D10*
X61645680Y50315180D02*
X61335800Y50254220D01*
D13*
X61793000Y48367000D02*
X60904000Y48113000D01*
X61793000Y48748000D02*
X62428000Y49256000D01*
X61793000Y52050000D02*
X60142000Y52050000D01*
X61920000Y49510000D02*
X60904000Y49256000D01*
X62072400Y50145000D02*
X62809000Y50399000D01*
X62301000Y48748000D02*
X61793000Y48367000D01*
X62301000Y51161000D02*
X63571000Y51542000D01*
X62428000Y49256000D02*
X62555000Y49383000D01*
X62428000Y49510000D02*
X61920000Y49510000D01*
X62428000Y49891000D02*
X61285000Y49764000D01*
D10*
X62499120Y48562580D02*
X62463560Y48527020D01*
D13*
X62555000Y49383000D02*
X62428000Y49510000D01*
X62555000Y49891000D02*
X62428000Y49891000D01*
D10*
X62567700Y51000980D02*
X63954540Y51415000D01*
D13*
X62682000Y49764000D02*
X62555000Y49891000D01*
D10*
X62770900Y52108420D02*
X60622060Y52304000D01*
D13*
X62809000Y50399000D02*
X63571000Y50780000D01*
X62809000Y51920460D02*
X61793000Y52050000D01*
X63190000Y49637000D02*
X62301000Y48748000D01*
X63444000Y50018000D02*
X63190000Y49637000D01*
X63444000Y50399000D02*
X62682000Y49764000D01*
X63571000Y51542000D02*
X64079000Y51669000D01*
X63825000Y50526000D02*
X63444000Y50018000D01*
X63954540Y50653000D02*
X63954540Y51034000D01*
X63954540Y51034000D02*
X64333000Y51920460D01*
D10*
X63954540Y51415000D02*
X63672600Y51067020D01*
D13*
X63954540Y51920460D02*
X62809000Y51920460D01*
X64079000Y51669000D02*
X59507000Y51669000D01*
X64333000Y51161000D02*
X63954540Y50653000D01*
X64460000Y51669000D02*
X64333000Y51161000D01*
D10*
X64968000Y52558000D02*
X63954540Y51920460D01*
D13*
X64968000Y52558000D02*
X64460000Y51669000D01*
D10*
X65349000Y53066000D02*
X64482860Y50950180D01*
X65349000Y53066000D02*
X64487940Y52446240D01*
X72207000Y44049000D02*
X60396000Y44049000D01*
D14*
%TO.C,Sign_RecycleBin_1*%
X66063000Y34701000D02*
X61491000Y34701000D01*
X66063000Y33939000D02*
X66063000Y34701000D01*
X66012200Y34548600D02*
X61541800Y34548600D01*
X66012200Y34497800D02*
X61592600Y34497800D01*
X66012200Y34345400D02*
X61541800Y34345400D01*
X66012200Y34040600D02*
X61592600Y34040600D01*
D10*
X65857000Y39477000D02*
X61666000Y35286000D01*
X65730000Y35413000D02*
X61666000Y39350000D01*
X65222000Y38969000D02*
X62301000Y38969000D01*
X64714000Y39604000D02*
X64587000Y39604000D01*
X64714000Y39096000D02*
X64714000Y39604000D01*
X64714000Y35794000D02*
X64968000Y38842000D01*
X64714000Y35794000D02*
X64714000Y35413000D01*
X64714000Y35794000D02*
X63317000Y35794000D01*
X64714000Y35413000D02*
X64206000Y35413000D01*
X64587000Y39604000D02*
X64587000Y39096000D01*
X64206000Y35413000D02*
X64206000Y35667000D01*
X63952000Y39858000D02*
X63952000Y39731000D01*
X63952000Y39731000D02*
X63571000Y39731000D01*
X63952000Y38461000D02*
X63063000Y38461000D01*
X63952000Y38080000D02*
X63952000Y38461000D01*
X63825000Y38334000D02*
X63190000Y38334000D01*
X63571000Y39858000D02*
X63952000Y39858000D01*
X63571000Y39731000D02*
X63571000Y39858000D01*
X63063000Y38461000D02*
X63063000Y38080000D01*
X63063000Y38080000D02*
X63952000Y38080000D01*
X62809000Y36302000D02*
X62682000Y38334000D01*
X62682000Y38969000D02*
X62682000Y38461000D01*
X62682000Y38461000D02*
X62301000Y38461000D01*
X62555000Y38969000D02*
X62428000Y38588000D01*
X62555000Y38842000D02*
X62555000Y38715000D01*
X62555000Y38842000D02*
X62555000Y38715000D01*
X62555000Y38842000D02*
X62428000Y38842000D01*
X62555000Y38461000D02*
X62555000Y38842000D01*
X62428000Y38842000D02*
X62428000Y38461000D01*
X62301000Y38461000D02*
X62301000Y38969000D01*
D14*
X61592600Y34142200D02*
X65961400Y34142200D01*
X61541800Y34650200D02*
X65961400Y34650200D01*
X61541800Y34396200D02*
X65961400Y34396200D01*
X61541800Y34243800D02*
X65961400Y34243800D01*
X61491000Y34701000D02*
X61491000Y33939000D01*
X61491000Y33939000D02*
X66063000Y33939000D01*
D10*
X64968000Y39096000D02*
G75*
G03*
X62682000Y39096000I-1143000J-1143000D01*
G01*
D15*
X62936000Y35794000D02*
G75*
G03*
X62936000Y35794000I-127000J0D01*
G01*
D10*
X63210609Y35794000D02*
G75*
G03*
X63210609Y35794000I-401609J0D01*
G01*
D16*
%TO.C,Sign_PB-Free*%
X38264980Y38415280D02*
X35831660Y35994660D01*
D10*
X38906437Y37251960D02*
G75*
G03*
X38906437Y37251960I-1802237J0D01*
G01*
D17*
%TO.C,Sign_OSHW_8x8*%
X12124570Y49481670D02*
G75*
G03*
X12495410Y47617310I1117599J-746760D01*
G01*
X13988930Y47784950D02*
G75*
G03*
X14065130Y49639150I-889000J965200D01*
G01*
X14039730Y49664550D02*
G75*
G03*
X12114410Y49466430I-863600J-1061719D01*
G01*
D14*
X9272150Y49212430D02*
X9274690Y48254850D01*
X9355970Y48470750D02*
X10463410Y48247230D01*
D17*
X9388990Y48323430D02*
X10402450Y48153250D01*
X9388990Y49159090D02*
X9388990Y48323430D01*
D18*
X9919850Y48765390D02*
X11387970Y48679030D01*
D14*
X10044310Y51122510D02*
X10747890Y50131910D01*
D17*
X10194170Y51114890D02*
X10811390Y50324950D01*
D14*
X10305930Y48056730D02*
X10686930Y47076290D01*
X10338950Y46420970D02*
X10824090Y45890110D01*
D17*
X10402450Y48153250D02*
X10808850Y47241390D01*
D14*
X10410070Y48023710D02*
X9287390Y48234530D01*
D17*
X10471030Y49387690D02*
X9388990Y49159090D01*
D14*
X10658990Y50241130D02*
X10293230Y49372450D01*
D18*
X10730110Y49189570D02*
X11451470Y49042250D01*
D14*
X10735190Y45646270D02*
X10051930Y46337150D01*
D17*
X10742810Y45801210D02*
X10189090Y46347310D01*
D14*
X10742810Y51821010D02*
X10049390Y51130130D01*
D17*
X10747890Y51663530D02*
X10194170Y51117430D01*
X10758050Y45793590D02*
X11593710Y46360010D01*
D14*
X10758050Y45956150D02*
X11578470Y46484470D01*
D17*
X10808850Y47241390D02*
X10189090Y46354930D01*
X10811390Y50324950D02*
X10471030Y49387690D01*
D18*
X10910450Y50949790D02*
X12022970Y49882990D01*
X10971410Y49882990D02*
X11626730Y49517230D01*
D14*
X11441310Y46288890D02*
X11969630Y45961230D01*
D18*
X11565770Y48031330D02*
X10956170Y47924650D01*
D17*
X11593710Y46360010D02*
X11931530Y46174590D01*
D14*
X11621650Y46260950D02*
X10745350Y45641190D01*
D17*
X11652130Y51031070D02*
X10747890Y51665510D01*
D14*
X11758810Y48920330D02*
X11992490Y49593430D01*
X11758810Y51145370D02*
X10747890Y51818470D01*
X11763890Y48414870D02*
X11763890Y48933030D01*
D18*
X11840090Y50751670D02*
X12259190Y50164930D01*
X11885810Y47612230D02*
X11268590Y47284570D01*
D17*
X11931530Y46174590D02*
X12505570Y47614770D01*
D14*
X11969630Y45961230D02*
X12355710Y46941670D01*
X11992490Y49593430D02*
X12503030Y50022690D01*
D18*
X12000110Y47475070D02*
X10819010Y46461610D01*
X12000110Y47566510D02*
X11667370Y46834990D01*
D14*
X12139810Y47703670D02*
X11763890Y48414870D01*
X12317610Y47581750D02*
X12139810Y47703670D01*
X12360790Y47640170D02*
X11832470Y46258410D01*
X12383650Y47833210D02*
X12637650Y47668110D01*
D18*
X12426830Y51003130D02*
X12647810Y50317330D01*
D14*
X12444610Y51531450D02*
X11639430Y51193630D01*
X12503030Y50022690D02*
X13318370Y50182710D01*
X12520810Y47378550D02*
X12642730Y47663030D01*
D17*
X12566530Y51475570D02*
X11664830Y51025990D01*
D14*
X12660510Y52621110D02*
X12434450Y51450170D01*
D17*
X12779890Y52494110D02*
X12566530Y51475570D01*
D18*
X13176130Y52006430D02*
X13171050Y50492590D01*
D14*
X13318370Y50190330D02*
X14189590Y49761070D01*
D17*
X13539350Y52501730D02*
X13745090Y51488270D01*
X13546970Y52514430D02*
X12762110Y52514430D01*
D14*
X13625710Y52621110D02*
X12660510Y52621110D01*
X13635870Y52613490D02*
X13836530Y51587330D01*
D18*
X13691750Y51018370D02*
X13524110Y50408770D01*
D14*
X13884790Y47835750D02*
X13658730Y47660490D01*
D18*
X14126090Y50759290D02*
X13950830Y50401150D01*
D14*
X14189590Y49761070D02*
X14608690Y49029550D01*
X14253090Y47950050D02*
X13994010Y47612230D01*
X14308970Y45991710D02*
X13658730Y47660490D01*
X14369930Y47970370D02*
X14062590Y47703670D01*
D19*
X14390250Y46172050D02*
X13839070Y47594450D01*
D14*
X14476610Y48171030D02*
X14382630Y48000850D01*
X14476610Y48171030D02*
X14382630Y48000850D01*
X14613770Y49024470D02*
X14481690Y48201510D01*
X14623930Y51219030D02*
X13719690Y51597490D01*
D17*
X14644250Y51061550D02*
X13798430Y51467950D01*
D14*
X14692510Y46194910D02*
X14347070Y45973930D01*
X14700130Y50883750D02*
X13717150Y51376510D01*
X14705210Y46205070D02*
X15530710Y45641190D01*
D18*
X14710290Y46713070D02*
X14344530Y47475070D01*
D17*
X14735690Y46357470D02*
X14418190Y46151730D01*
D18*
X15124310Y49982050D02*
X14667110Y49692490D01*
X15299570Y49501990D02*
X14857610Y49341970D01*
D14*
X15345290Y50248750D02*
X15947270Y51158070D01*
X15350370Y50253830D02*
X15736450Y49255610D01*
D18*
X15375770Y47612230D02*
X14811890Y48092290D01*
X15385930Y46540350D02*
X14532490Y47561430D01*
X15436730Y51031070D02*
X14375010Y49923630D01*
D20*
X15525630Y45808830D02*
X14745850Y46339690D01*
D17*
X15533250Y51704170D02*
X14705210Y51051390D01*
D14*
X15538330Y45633570D02*
X16259690Y46326990D01*
X15558650Y51866730D02*
X14588370Y51150450D01*
X15589130Y51602570D02*
X14705210Y50881210D01*
D18*
X15624690Y48257390D02*
X14918570Y48384390D01*
D17*
X15843130Y49354670D02*
X15495150Y50220810D01*
X15911710Y48107530D02*
X15553570Y47223610D01*
D14*
X15962510Y49430870D02*
X15627230Y50263990D01*
D17*
X16071730Y51122510D02*
X15515470Y50271610D01*
D21*
X16081890Y51145370D02*
X15581510Y51678770D01*
D17*
X16086970Y46347310D02*
X15553570Y47180430D01*
D21*
X16102210Y46347310D02*
X15538330Y45808830D01*
D14*
X16224130Y51114890D02*
X15629770Y50261450D01*
X16244450Y51150450D02*
X15571350Y51864190D01*
X16267310Y46329530D02*
X15670410Y47193130D01*
D18*
X16422250Y48745070D02*
X15004930Y48806030D01*
D14*
X16737210Y49042250D02*
X16737210Y48392010D01*
X16879450Y48986370D02*
X15764390Y49232750D01*
D21*
X16879450Y49126070D02*
X16884530Y48338670D01*
D17*
X16889610Y48348830D02*
X15939650Y48130390D01*
X16892150Y49138770D02*
X15873610Y49319110D01*
D14*
X17029310Y48237070D02*
X15957430Y48041490D01*
X17029310Y49230210D02*
X17029310Y48244690D01*
X17031850Y49232750D02*
X15860910Y49435950D01*
D10*
%TO.C,Sign_Antistatic*%
X35630995Y46398496D02*
G75*
G03*
X35122301Y46588526I-444495J-413996D01*
G01*
X35631016Y46398513D02*
G75*
G03*
X36453462Y45952424I970284J807687D01*
G01*
X36431098Y47477985D02*
G75*
G03*
X36646916Y47539886I33002J292115D01*
G01*
X37028001Y45763502D02*
G75*
G03*
X36588275Y45889506I-1264801J-3583602D01*
G01*
X37599500Y45001500D02*
G75*
G03*
X37027915Y45762035I-855980J-48260D01*
G01*
X37663002Y46652502D02*
G75*
G03*
X38359935Y46206156I850908J561348D01*
G01*
X37790000Y45001501D02*
G75*
G03*
X37916966Y45128400I-63500J190499D01*
G01*
X37916999Y45128500D02*
G75*
G03*
X37916067Y45445326I-317499J157480D01*
G01*
X37917000Y45446000D02*
G75*
G03*
X36965708Y46206834I-1236980J-571500D01*
G01*
X38234500Y47033500D02*
G75*
G03*
X36647721Y47541321I-1120140J-767080D01*
G01*
X38234489Y47033493D02*
G75*
G03*
X38550549Y46715859I795011J475007D01*
G01*
X38297959Y45001502D02*
G75*
G03*
X38359071Y44935456I63541J-2502D01*
G01*
X38361500Y44938000D02*
G75*
G03*
X38742500Y45319000I0J381000D01*
G01*
X38361500Y45192000D02*
G75*
G03*
X38298000Y45128500I0J-63500D01*
G01*
X38552000Y45065000D02*
G75*
G03*
X38425000Y45192000I-127000J0D01*
G01*
X38742521Y46398500D02*
G75*
G03*
X38553048Y46714425I-358121J0D01*
G01*
X33472000Y43922000D02*
X34805500Y46589000D01*
X34805500Y46589000D02*
X35123000Y46589000D01*
X34805500Y46589000D02*
X35250000Y47478000D01*
X35250000Y47478000D02*
X37028000Y51034000D01*
X36431100Y47478000D02*
X35250000Y47478000D01*
X37028000Y51034000D02*
X40584000Y43922000D01*
X37790000Y45001500D02*
X37637600Y45001500D01*
X38298000Y45001500D02*
X38298000Y45128500D01*
X38361500Y45192000D02*
X38361500Y46208000D01*
X38361500Y45192000D02*
X38425000Y45192000D01*
X38742500Y46398500D02*
X38742500Y45319000D01*
X38806000Y47414500D02*
X33472000Y43922000D01*
X40584000Y43922000D02*
X33472000Y43922000D01*
D20*
%TO.C,Logo_OLIMEX_TB*%
X29119735Y62349700D02*
G75*
G03*
X29119735Y62349700I-359435J0D01*
G01*
X29178666Y58958800D02*
G75*
G03*
X29178666Y58958800I-329466J0D01*
G01*
X32053659Y60609800D02*
G75*
G03*
X32053659Y60609800I-359659J0D01*
G01*
X35041729Y59047700D02*
G75*
G03*
X35041729Y59047700I-363229J0D01*
G01*
X36662318Y60330400D02*
G75*
G03*
X36662318Y60330400I-370918J0D01*
G01*
X38187759Y59060400D02*
G75*
G03*
X38187759Y59060400I-359659J0D01*
G01*
X39420818Y62260800D02*
G75*
G03*
X39420818Y62260800I-373518J0D01*
G01*
X39426324Y59035000D02*
G75*
G03*
X39426324Y59035000I-366324J0D01*
G01*
X44718747Y60813000D02*
G75*
G03*
X44718747Y60813000I-337447J0D01*
G01*
D22*
X29128600Y61994100D02*
X29992200Y61100400D01*
X29179400Y59314400D02*
X30017600Y60127200D01*
D11*
X30525600Y60228800D02*
X29992200Y60228800D01*
X30551000Y61003500D02*
X29992200Y61003500D01*
D23*
X31554300Y62514800D02*
X30297000Y61270200D01*
X31605100Y62514800D02*
X31554300Y62514800D01*
D22*
X31668600Y59009600D02*
X30525600Y60127200D01*
X31668600Y62184600D02*
X30576400Y61117800D01*
X32202000Y60609800D02*
X33421200Y60609800D01*
X32890500Y62184600D02*
X31668600Y62184600D01*
D23*
X32976700Y62514800D02*
X31605100Y62514800D01*
D22*
X32989400Y59009600D02*
X31668600Y59009600D01*
X33421200Y59441400D02*
X32989400Y59009600D01*
X33421200Y61676600D02*
X33421200Y59441400D01*
X33421200Y61702000D02*
X32938600Y62210000D01*
D23*
X34348300Y59454100D02*
X34348300Y62464000D01*
X34348300Y62464000D02*
X34348300Y62476700D01*
X34348300Y62476700D02*
X35643700Y62476700D01*
X34500700Y62400500D02*
X34399100Y62400500D01*
D22*
X34678500Y62171900D02*
X34678500Y59568400D01*
X35580200Y62159200D02*
X34691200Y62159200D01*
D23*
X35643700Y62476700D02*
X35669100Y62476700D01*
X35669100Y62476700D02*
X36291400Y61981400D01*
D22*
X36215200Y61651200D02*
X35580200Y62159200D01*
X36291400Y60863800D02*
X36291400Y61575000D01*
D23*
X36913700Y62476700D02*
X36329500Y61994100D01*
D22*
X37002600Y62159200D02*
X36393000Y61651200D01*
X37840800Y59568400D02*
X37840800Y62159200D01*
X37840800Y62159200D02*
X37002600Y62159200D01*
D23*
X38005900Y62413200D02*
X38082100Y62413200D01*
X38158300Y59479500D02*
X38158300Y62464000D01*
X38158300Y62476700D02*
X36913700Y62476700D01*
X38742500Y59822400D02*
X38742500Y61841700D01*
X38767900Y59822400D02*
X38742500Y59822400D01*
X38894900Y59885900D02*
X38806000Y59885900D01*
D22*
X39060000Y61727400D02*
X39060000Y60127200D01*
D23*
X39237800Y59885900D02*
X39301300Y59885900D01*
X39377500Y59822400D02*
X38767900Y59822400D01*
X39377500Y61841700D02*
X39377500Y59822400D01*
D22*
X39572800Y59009600D02*
X40558600Y59009600D01*
X40558600Y59009600D02*
X41015800Y59466800D01*
D23*
X40698300Y62527500D02*
X40698300Y59492200D01*
X40876100Y62451300D02*
X40761800Y62451300D01*
X41003100Y62527500D02*
X40698300Y62527500D01*
D22*
X41015800Y59454100D02*
X41015800Y62184600D01*
D23*
X41015800Y62527500D02*
X41295200Y62527500D01*
X41180900Y62438600D02*
X41244400Y62451300D01*
X41295200Y62527500D02*
X41307900Y62527500D01*
X41307900Y62527500D02*
X41320600Y62527500D01*
X41320600Y62527500D02*
X41320600Y59377900D01*
D22*
X42171500Y61575000D02*
X42171500Y59644600D01*
X42184200Y59606500D02*
X42743000Y59022300D01*
X42793800Y62171900D02*
X42158800Y61562300D01*
X42793800Y62184600D02*
X43797100Y62184600D01*
X43822500Y58996900D02*
X42781100Y58996900D01*
X44381300Y59555700D02*
X44381300Y60317700D01*
X44394000Y59568400D02*
X43809800Y58996900D01*
X44394000Y61536900D02*
X44394000Y61295600D01*
X44394000Y61587700D02*
X43886000Y62095700D01*
D10*
%TO.C,Sign_CE*%
X13886000Y38175000D02*
X13886000Y37675000D01*
X13886000Y34675000D02*
X13886000Y34175000D01*
X11886000Y36425000D02*
X10636000Y36425000D01*
X10636000Y36425000D02*
X10636000Y35925000D01*
X10636000Y36175000D02*
X11886000Y36175000D01*
X10636000Y35925000D02*
X11886000Y35925000D01*
X10386000Y38175000D02*
X10386000Y37675000D01*
X10386000Y34675000D02*
X10386000Y34175000D01*
D24*
X13935980Y34425000D02*
G75*
G03*
X13936000Y37925000I-49979J1750000D01*
G01*
D10*
X13886000Y34675000D02*
G75*
G03*
X13886000Y37675000I0J1500000D01*
G01*
X13886000Y34175000D02*
G75*
G03*
X13886000Y38175000I0J2000000D01*
G01*
D24*
X10435980Y34425000D02*
G75*
G03*
X10436000Y37925000I-49980J1750000D01*
G01*
D10*
X10386000Y34675000D02*
G75*
G03*
X10386000Y37675000I0J1500000D01*
G01*
X10386000Y34175000D02*
G75*
G03*
X10386000Y38175000I0J2000000D01*
G01*
%TD*%
M02*
