%TF.GenerationSoftware,KiCad,Pcbnew,7.0.9-7.0.9~ubuntu22.04.1*%
%TF.CreationDate,2025-08-29T15:08:21+03:00*%
%TF.ProjectId,ESP32-C5-EVB_Rev_A,45535033-322d-4433-952d-4556425f5265,A*%
%TF.SameCoordinates,PX3938700PY9896800*%
%TF.FileFunction,Paste,Top*%
%TF.FilePolarity,Positive*%
%FSLAX46Y46*%
G04 Gerber Fmt 4.6, Leading zero omitted, Abs format (unit mm)*
G04 Created by KiCad (PCBNEW 7.0.9-7.0.9~ubuntu22.04.1) date 2025-08-29 15:08:21*
%MOMM*%
%LPD*%
G01*
G04 APERTURE LIST*
G04 Aperture macros list*
%AMOutline4P*
0 Free polygon, 4 corners , with rotation*
0 The origin of the aperture is its center*
0 number of corners: always 4*
0 $1 to $8 corner X, Y*
0 $9 Rotation angle, in degrees counterclockwise*
0 create outline with 4 corners*
4,1,4,$1,$2,$3,$4,$5,$6,$7,$8,$1,$2,$9*%
G04 Aperture macros list end*
%ADD10R,1.778000X1.524000*%
%ADD11R,0.500000X0.550000*%
%ADD12R,1.000000X1.400000*%
%ADD13R,1.400000X1.000000*%
%ADD14R,1.130000X0.280000*%
%ADD15R,1.130000X0.230000*%
%ADD16R,2.000000X1.100000*%
%ADD17R,2.200000X1.100000*%
%ADD18R,3.000000X2.100000*%
%ADD19R,3.200000X2.100000*%
%ADD20R,0.800000X0.800000*%
%ADD21R,0.550000X0.500000*%
%ADD22R,1.016000X1.016000*%
%ADD23R,1.700000X2.000000*%
%ADD24Outline4P,-0.850000X-2.275000X0.850000X-2.275000X0.850000X2.275000X-0.850000X2.275000X0.000000*%
%ADD25R,1.270000X1.524000*%
%ADD26R,3.200000X6.000000*%
%ADD27R,2.286000X1.778000*%
%ADD28R,1.600000X1.000000*%
%ADD29R,1.300000X1.300000*%
%ADD30C,1.000000*%
%ADD31R,1.200000X0.550000*%
%ADD32R,0.550000X1.200000*%
%ADD33R,0.750000X0.230000*%
%ADD34R,0.980000X0.230000*%
G04 APERTURE END LIST*
D10*
%TO.C,R41*%
X56078000Y16109000D03*
X56078000Y18903000D03*
%TD*%
%TO.C,R40*%
X44902000Y16109000D03*
X44902000Y18903000D03*
%TD*%
D11*
%TO.C,R25*%
X50363000Y47097000D03*
X51379000Y47097000D03*
%TD*%
D12*
%TO.C,D11*%
X63312000Y12934000D03*
X59512000Y12934000D03*
%TD*%
D13*
%TO.C,D5*%
X53411000Y48499000D03*
X53411000Y52299000D03*
%TD*%
D14*
%TO.C,USB-UART1*%
X71768000Y30925000D03*
X71768000Y31725000D03*
D15*
X71768000Y32250000D03*
X71768000Y33250000D03*
X71768000Y34750000D03*
X71768000Y35750000D03*
D14*
X71768000Y36275000D03*
X71768000Y37075000D03*
X71768000Y37325000D03*
X71768000Y36525000D03*
D15*
X71768000Y35250000D03*
X71768000Y34250000D03*
X71768000Y33750000D03*
X71768000Y32750000D03*
D14*
X71768000Y31475000D03*
X71768000Y30675000D03*
D16*
X76850000Y29072400D03*
X76850000Y38927600D03*
D17*
X72670000Y29072400D03*
X72670000Y38927600D03*
D18*
X76850000Y29072400D03*
X76850000Y38927600D03*
D19*
X72670000Y29072400D03*
X72670000Y38927600D03*
%TD*%
D20*
%TO.C,LED_RELAY1*%
X12238000Y36000000D03*
X13762000Y36000000D03*
%TD*%
D21*
%TO.C,R34*%
X69667000Y15982000D03*
X69667000Y16998000D03*
%TD*%
D20*
%TO.C,LED_RELAY2*%
X32238000Y36000000D03*
X33762000Y36000000D03*
%TD*%
D13*
%TO.C,RST1*%
X12075000Y65925000D03*
X12075000Y68075000D03*
X7925000Y65925000D03*
X7925000Y68075000D03*
%TD*%
D21*
%TO.C,R9*%
X54935000Y43160000D03*
X54935000Y44176000D03*
%TD*%
D22*
%TO.C,C11*%
X9342000Y39477000D03*
X7564000Y39477000D03*
%TD*%
D21*
%TO.C,C16*%
X19248000Y64115000D03*
X19248000Y63099000D03*
%TD*%
%TO.C,R19*%
X51506000Y36556000D03*
X51506000Y37572000D03*
%TD*%
%TO.C,R14*%
X12009000Y39731000D03*
X12009000Y38715000D03*
%TD*%
D11*
%TO.C,C7*%
X55951000Y42144000D03*
X56967000Y42144000D03*
%TD*%
%TO.C,R39*%
X58491000Y29317000D03*
X57475000Y29317000D03*
%TD*%
D23*
%TO.C,D1*%
X7310000Y42184000D03*
X7310000Y47184000D03*
%TD*%
D11*
%TO.C,R13*%
X43505000Y53193000D03*
X44521000Y53193000D03*
%TD*%
D24*
%TO.C,UEXT1*%
X32920000Y66625000D03*
X32920000Y60375000D03*
X35460000Y66625000D03*
X35460000Y60375000D03*
X38000000Y66625000D03*
X38000000Y60375000D03*
X40540000Y66625000D03*
X40540000Y60375000D03*
X43080000Y66625000D03*
X43080000Y60375000D03*
%TD*%
D21*
%TO.C,R18*%
X51506000Y34524000D03*
X51506000Y35540000D03*
%TD*%
D10*
%TO.C,OPT2*%
X60730000Y27445000D03*
X63270000Y27445000D03*
X63270000Y18555000D03*
X60730000Y18555000D03*
%TD*%
%TO.C,OPT1*%
X49730000Y27445000D03*
X52270000Y27445000D03*
X52270000Y18555000D03*
X49730000Y18555000D03*
%TD*%
D22*
%TO.C,C10*%
X17216000Y40493000D03*
X17216000Y42271000D03*
%TD*%
D21*
%TO.C,R10*%
X56078000Y44176000D03*
X56078000Y43160000D03*
%TD*%
D10*
%TO.C,R36*%
X44902000Y13950000D03*
X44902000Y11156000D03*
%TD*%
D25*
%TO.C,C17*%
X21788000Y45065000D03*
X23820000Y45065000D03*
%TD*%
D22*
%TO.C,C5*%
X54935000Y55733000D03*
X53157000Y55733000D03*
%TD*%
D21*
%TO.C,TVS2*%
X69667000Y34524000D03*
X69667000Y35540000D03*
%TD*%
D13*
%TO.C,USER1*%
X19075000Y65925000D03*
X19075000Y68075000D03*
X14925000Y65925000D03*
X14925000Y68075000D03*
%TD*%
D12*
%TO.C,FET1*%
X16520040Y54625560D03*
X18422500Y54625560D03*
X17467460Y56835360D03*
%TD*%
D11*
%TO.C,R3*%
X54173000Y57257000D03*
X55189000Y57257000D03*
%TD*%
D21*
%TO.C,R6*%
X25979000Y56622000D03*
X25979000Y57638000D03*
%TD*%
D26*
%TO.C,L2*%
X17068000Y48494000D03*
X11268000Y48494000D03*
%TD*%
D21*
%TO.C,R32*%
X7056000Y56622000D03*
X7056000Y57638000D03*
%TD*%
D20*
%TO.C,USER_LED1*%
X3000000Y60762000D03*
X3000000Y59238000D03*
%TD*%
D21*
%TO.C,C12*%
X47315000Y53193000D03*
X47315000Y54209000D03*
%TD*%
%TO.C,R23*%
X69667000Y30460000D03*
X69667000Y31476000D03*
%TD*%
D22*
%TO.C,C1*%
X54935000Y59162000D03*
X53157000Y59162000D03*
%TD*%
D11*
%TO.C,R21*%
X63444000Y36937000D03*
X64460000Y36937000D03*
%TD*%
%TO.C,R4*%
X24328000Y49129000D03*
X23312000Y49129000D03*
%TD*%
D27*
%TO.C,D2*%
X70429000Y11047000D03*
X70429000Y6693000D03*
%TD*%
D21*
%TO.C,C14*%
X58618000Y32746000D03*
X58618000Y31730000D03*
%TD*%
D13*
%TO.C,T2*%
X41183440Y35606040D03*
X41183440Y37508500D03*
X38973640Y36553460D03*
%TD*%
D11*
%TO.C,R29*%
X4262000Y51034000D03*
X5278000Y51034000D03*
%TD*%
D21*
%TO.C,R20*%
X44521000Y45446000D03*
X44521000Y46462000D03*
%TD*%
D11*
%TO.C,R17*%
X55824000Y32492000D03*
X56840000Y32492000D03*
%TD*%
D13*
%TO.C,Q2*%
X46461560Y42966960D03*
X46461560Y41064500D03*
X48671360Y42019540D03*
%TD*%
D28*
%TO.C,U4*%
X59250000Y61850000D03*
X59250000Y60580000D03*
X59250000Y59310000D03*
X59250000Y58040000D03*
X59250000Y56770000D03*
X59250000Y55500000D03*
X59250000Y54230000D03*
X59250000Y52960000D03*
X59250000Y51690000D03*
X59250000Y50420000D03*
X59250000Y49150000D03*
X59250000Y47880000D03*
X59250000Y46610000D03*
X59250000Y45340000D03*
D29*
X67130000Y54960000D03*
X67130000Y53260000D03*
X67130000Y51560000D03*
X68830000Y54960000D03*
X68830000Y53260000D03*
X68830000Y51560000D03*
X70530000Y54960000D03*
X70530000Y53260000D03*
X70530000Y51560000D03*
D28*
X76750000Y61850000D03*
X76750000Y60580000D03*
X76750000Y59310000D03*
X76750000Y58040000D03*
X76750000Y56770000D03*
X76750000Y55500000D03*
X76750000Y54230000D03*
X76750000Y52960000D03*
X76750000Y51690000D03*
X76750000Y50420000D03*
X76750000Y49150000D03*
X76750000Y47880000D03*
X76750000Y46610000D03*
X76750000Y45340000D03*
%TD*%
D30*
%TO.C,FID4*%
X50236000Y61194000D03*
%TD*%
D13*
%TO.C,D6*%
X51379000Y45568000D03*
X51379000Y41768000D03*
%TD*%
D21*
%TO.C,R26*%
X38044000Y55098000D03*
X38044000Y56114000D03*
%TD*%
D12*
%TO.C,D3*%
X57089000Y36937000D03*
X53289000Y36937000D03*
%TD*%
D22*
%TO.C,C6*%
X22296000Y55606000D03*
X24074000Y55606000D03*
%TD*%
D11*
%TO.C,R2*%
X36520000Y46843000D03*
X37536000Y46843000D03*
%TD*%
%TO.C,R7*%
X36520000Y48113000D03*
X37536000Y48113000D03*
%TD*%
D31*
%TO.C,U5*%
X11597900Y43602000D03*
X11597900Y42652000D03*
X11597900Y41702000D03*
X14198100Y41702000D03*
X14198100Y42652000D03*
X14198100Y43602000D03*
%TD*%
D21*
%TO.C,R11*%
X10866000Y38715000D03*
X10866000Y39731000D03*
%TD*%
D13*
%TO.C,U3*%
X17554000Y58847000D03*
X17554000Y60747000D03*
X15354000Y59797000D03*
%TD*%
D20*
%TO.C,PWR_LED1*%
X7000000Y60762000D03*
X7000000Y59238000D03*
%TD*%
D11*
%TO.C,C2*%
X54173000Y60686000D03*
X55189000Y60686000D03*
%TD*%
D12*
%TO.C,D10*%
X48590000Y12934000D03*
X52390000Y12934000D03*
%TD*%
%TO.C,FET2*%
X30611960Y52903440D03*
X28709500Y52903440D03*
X29664540Y50693640D03*
%TD*%
D22*
%TO.C,C3*%
X30932000Y43795000D03*
X30932000Y45573000D03*
%TD*%
D11*
%TO.C,R30*%
X15438000Y36048000D03*
X16454000Y36048000D03*
%TD*%
D12*
%TO.C,D9*%
X25603000Y35794000D03*
X29403000Y35794000D03*
%TD*%
D13*
%TO.C,FET3*%
X23220560Y52618960D03*
X23220560Y50716500D03*
X25430360Y51671540D03*
%TD*%
D32*
%TO.C,U2*%
X24389000Y60589000D03*
X23439000Y60589000D03*
X22489000Y60589000D03*
X22489000Y57989000D03*
X24389000Y57989000D03*
%TD*%
D13*
%TO.C,T1*%
X21117440Y35606040D03*
X21117440Y37508500D03*
X18907640Y36553460D03*
%TD*%
D10*
%TO.C,R38*%
X56078000Y13950000D03*
X56078000Y11156000D03*
%TD*%
D21*
%TO.C,R31*%
X7056000Y54336000D03*
X7056000Y55352000D03*
%TD*%
%TO.C,R28*%
X51506000Y40366000D03*
X51506000Y39350000D03*
%TD*%
%TO.C,R22*%
X69667000Y37572000D03*
X69667000Y36556000D03*
%TD*%
D25*
%TO.C,C9*%
X21788000Y47351000D03*
X23820000Y47351000D03*
%TD*%
D21*
%TO.C,TVS3*%
X69667000Y21062000D03*
X69667000Y20046000D03*
%TD*%
D20*
%TO.C,CHARGE1*%
X11000000Y60762000D03*
X11000000Y59238000D03*
%TD*%
D13*
%TO.C,Q1*%
X46461560Y46649960D03*
X46461560Y44747500D03*
X48671360Y45702540D03*
%TD*%
D21*
%TO.C,R16*%
X45918000Y53193000D03*
X45918000Y54209000D03*
%TD*%
%TO.C,R5*%
X14803000Y56622000D03*
X14803000Y57638000D03*
%TD*%
%TO.C,R27*%
X36774000Y56114000D03*
X36774000Y55098000D03*
%TD*%
D19*
%TO.C,USB-JTAG1*%
X72670000Y24927600D03*
X72670000Y15072400D03*
D18*
X76850000Y24927600D03*
X76850000Y15072400D03*
D17*
X72670000Y24927600D03*
X72670000Y15072400D03*
D16*
X76850000Y24927600D03*
X76850000Y15072400D03*
D14*
X71768000Y16675000D03*
X71768000Y17475000D03*
D15*
X71768000Y18750000D03*
X71768000Y19750000D03*
X71768000Y20250000D03*
X71768000Y21250000D03*
D14*
X71768000Y22525000D03*
X71768000Y23325000D03*
X71768000Y23075000D03*
X71768000Y22275000D03*
D15*
X71768000Y21750000D03*
X71768000Y20750000D03*
X71768000Y19250000D03*
X71768000Y18250000D03*
D14*
X71768000Y17725000D03*
X71768000Y16925000D03*
%TD*%
D21*
%TO.C,R33*%
X69667000Y24745000D03*
X69667000Y23729000D03*
%TD*%
D33*
%TO.C,U1*%
X34628000Y46724000D03*
X34628000Y47224000D03*
X34628000Y47724000D03*
X33078000Y46724000D03*
X33078000Y47224000D03*
X33078000Y47724000D03*
%TD*%
D11*
%TO.C,R8*%
X31186000Y54717000D03*
X30170000Y54717000D03*
%TD*%
%TO.C,R12*%
X44902000Y49510000D03*
X45918000Y49510000D03*
%TD*%
D34*
%TO.C,U6*%
X65336000Y33143000D03*
X65336000Y33643000D03*
X65336000Y34143000D03*
X65336000Y34643000D03*
X65336000Y35143000D03*
X60536000Y35143000D03*
X60536000Y34643000D03*
X60536000Y34143000D03*
X60536000Y33643000D03*
X60536000Y33143000D03*
%TD*%
D11*
%TO.C,R35*%
X35504000Y36048000D03*
X36520000Y36048000D03*
%TD*%
D21*
%TO.C,TVS4*%
X69667000Y19030000D03*
X69667000Y18014000D03*
%TD*%
D30*
%TO.C,FID3*%
X1722000Y6965000D03*
%TD*%
D21*
%TO.C,TVS1*%
X69667000Y33508000D03*
X69667000Y32492000D03*
%TD*%
D13*
%TO.C,D7*%
X67508000Y18654000D03*
X67508000Y22454000D03*
%TD*%
D20*
%TO.C,LED_IN2*%
X61031000Y15093000D03*
X59507000Y15093000D03*
%TD*%
D21*
%TO.C,C15*%
X12009000Y64115000D03*
X12009000Y63099000D03*
%TD*%
D11*
%TO.C,C8*%
X55062000Y42144000D03*
X54046000Y42144000D03*
%TD*%
D12*
%TO.C,D4*%
X53289000Y34397000D03*
X57089000Y34397000D03*
%TD*%
D21*
%TO.C,R37*%
X50236000Y29698000D03*
X50236000Y30714000D03*
%TD*%
%TO.C,R15*%
X47315000Y49510000D03*
X47315000Y48494000D03*
%TD*%
D20*
%TO.C,LED_IN1*%
X48585000Y15093000D03*
X50109000Y15093000D03*
%TD*%
D21*
%TO.C,R24*%
X44521000Y43795000D03*
X44521000Y42779000D03*
%TD*%
D22*
%TO.C,C13*%
X61031000Y37064000D03*
X61031000Y38842000D03*
%TD*%
%TO.C,C4*%
X33218000Y50399000D03*
X34996000Y50399000D03*
%TD*%
D12*
%TO.C,D8*%
X6172000Y35794000D03*
X9972000Y35794000D03*
%TD*%
D16*
%TO.C,L1*%
X30551000Y47413000D03*
X30551000Y48813000D03*
%TD*%
D21*
%TO.C,R1*%
X11000000Y57638000D03*
X11000000Y56622000D03*
%TD*%
M02*
