M48
; DRILL file {KiCad 7.0.9-7.0.9~ubuntu22.04.1} date 29.08.2025 (пт) 15:08:25
; FORMAT={-:-/ absolute / metric / decimal}
; #@! TF.CreationDate,2025-08-29T15:08:25+03:00
; #@! TF.GenerationSoftware,Kicad,Pcbnew,7.0.9-7.0.9~ubuntu22.04.1
; #@! TF.FileFunction,Plated,1,2,PTH
FMAT,2
METRIC
; #@! TA.AperFunction,Plated,PTH,ViaDrill
T1C0.300
; #@! TA.AperFunction,Plated,PTH,ComponentDrill
T2C0.300
; #@! TA.AperFunction,Plated,PTH,ViaDrill
T3C0.400
; #@! TA.AperFunction,Plated,PTH,ViaDrill
T4C0.600
; #@! TA.AperFunction,Plated,PTH,ComponentDrill
T5C0.800
; #@! TA.AperFunction,Plated,PTH,ComponentDrill
T6C0.900
; #@! TA.AperFunction,Plated,PTH,ComponentDrill
T7C1.000
; #@! TA.AperFunction,Plated,PTH,ComponentDrill
T8C1.200
; #@! TA.AperFunction,Plated,PTH,ComponentDrill
T9C1.300
%
G90
G05
T1
X60.904Y56.876
T2
X66.68Y54.11
X66.68Y52.41
X67.98Y55.41
X67.98Y54.58
X67.98Y51.94
X67.98Y51.11
X69.68Y55.41
X69.68Y54.58
X69.68Y51.94
X69.68Y51.11
X70.98Y54.11
X70.98Y52.41
T3
X11.247Y64.115
X11.882Y57.003
X15.565Y57.638
X16.2Y56.368
X16.454Y35.159
X18.486Y64.115
X21.661Y56.749
X22.677Y62.337
X24.963Y59.797
X31.694Y55.225
X34.996Y57.511
X35.631Y63.099
X36.393Y64.115
X36.52Y35.159
X36.774Y57.511
X38.044Y57.511
X39.568Y57.511
X40.584Y57.511
X41.346Y54.844
X41.473Y57.892
X43.505Y54.082
X44.775Y58.781
X45.156Y41.128
X45.537Y36.683
X45.537Y35.413
X46.045Y57.892
X49.728Y40.366
X51.633Y42.779
X52.268Y52.431
X54.046Y50.653
X54.427Y36.937
X54.427Y35.667
X55.316Y49.51
X56.078Y50.272
X56.967Y52.431
X57.729Y53.193
X60.65Y53.066
X60.65Y51.923
X61.285Y45.319
X61.539Y53.701
X62.047Y49.891
X62.11Y50.97
X65.73Y48.748
X66.873Y45.319
X67.889Y49.637
X68.143Y44.938
X69.286Y48.24
X70.556Y47.732
X70.556Y35.032
X70.556Y33.508
X70.556Y23.729
X70.556Y20.935
X72.842Y21.824
X73.544Y20.573
X73.544Y19.619
X73.703Y40.99
X73.731Y34.651
X73.731Y33.381
X73.858Y21.57
X74.377Y41.664
X75.001Y60.051
X75.001Y59.035
X75.128Y19.157
T4
X1.087Y60.432
X2.992Y50.018
X3.373Y54.082
X4.77Y46.843
X4.77Y43.668
X5.151Y52.304
X5.532Y34.524
X6.548Y34.524
X6.802Y68.306
X7.056Y62.21
X9.85Y68.052
X9.85Y42.652
X9.85Y41.509
X10.612Y52.812
X12.898Y43.287
X12.898Y42.017
X13.533Y68.052
X14.168Y40.493
X14.422Y58.527
X15.184Y62.21
X15.184Y61.194
X15.311Y40.493
X16.962Y68.052
X17.47Y52.812
X18.359Y40.493
X19.502Y40.493
X20.391Y68.052
X22.931Y41.128
X23.439Y58.908
X23.439Y57.003
X24.201Y36.683
X24.582Y34.524
X25.344Y40.239
X25.598Y34.524
X25.725Y47.859
X25.725Y45.065
X27.63Y61.956
X27.63Y52.558
X27.63Y51.288
X27.63Y48.621
X27.63Y47.351
X28.138Y60.94
X28.519Y67.417
X28.646Y45.573
X29.154Y60.559
X29.789Y45.573
X30.424Y66.147
X30.678Y40.239
X30.932Y51.034
X31.567Y66.147
X33.091Y48.875
X34.234Y48.875
X34.361Y53.955
X35.25Y45.573
X35.25Y40.239
X35.377Y48.875
X36.393Y45.573
X38.044Y39.604
X38.425Y35.159
X39.187Y39.604
X41.727Y49.383
X41.727Y47.097
X41.727Y44.557
X42.362Y33.762
X42.616Y37.445
X43.378Y28.047
X45.918Y30.206
X46.172Y48.367
X47.315Y36.683
X47.442Y67.29
X48.839Y38.461
X48.966Y44.049
X49.093Y56.241
X51.252Y29.698
X51.506Y38.461
X52.141Y56.241
X52.649Y61.829
X53.03Y42.144
X53.284Y44.43
X53.411Y39.985
X54.046Y27.412
X54.3Y46.716
X55.189Y38.969
X55.316Y61.829
X55.316Y27.412
X56.205Y56.241
X57.094Y47.859
X57.856Y44.049
X57.856Y42.144
X58.872Y27.666
X60.269Y29.317
X60.396Y31.857
X61.92Y61.829
X62.555Y56.749
X62.555Y52.812
X62.936Y45.827
X62.936Y33.254
X63.825Y48.24
X63.825Y30.587
X64.079Y61.829
X64.079Y54.463
X64.968Y27.412
X65.603Y56.749
X65.73Y52.812
X65.984Y39.985
X66.238Y61.829
X66.238Y28.809
X66.619Y35.921
X66.619Y34.651
X66.619Y31.984
X67.508Y17.633
X67.508Y16.49
X67.889Y38.207
X67.889Y6.711
X67.889Y1.377
X68.524Y61.829
X69.413Y22.454
X69.794Y12.68
X70.429Y28.174
X70.429Y22.454
X70.556Y37.064
X70.556Y31.222
X70.81Y12.68
X70.937Y61.829
X71.191Y56.749
X71.826Y12.68
X72.969Y5.314
X73.096Y61.829
X73.096Y35.794
X73.096Y32.238
X73.096Y18.268
X74.239Y18.268
X75.128Y43.033
X78.557Y34.016
X78.684Y61.829
X78.684Y59.289
X78.684Y56.749
X78.684Y54.209
X78.684Y51.669
X78.684Y49.129
X78.684Y46.589
X78.684Y44.049
X78.684Y41.763
X78.684Y20.173
T6
X22.971Y67.536
X25.001Y67.538
X77.536Y11.029
X77.538Y8.999
T7
X1.5Y56.12
X1.5Y53.58
X1.5Y51.04
X1.5Y48.5
X1.5Y45.96
X1.5Y43.42
X1.5Y40.88
X1.5Y38.34
X1.5Y35.8
T8
X68.83Y53.26
T9
X4.5Y26.3
X4.5Y14.3
X10.5Y28.3
X10.5Y4.5
X15.5Y4.5
X16.5Y26.3
X16.5Y14.3
X20.5Y4.5
X24.5Y26.3
X24.5Y14.3
X27.0Y4.5
X30.5Y28.3
X32.0Y4.5
X36.5Y26.3
X36.5Y14.3
X37.0Y4.5
X45.5Y4.5
X50.5Y4.5
X56.5Y4.5
X61.5Y4.5
T5
G00X72.22Y38.32
M15
G01X73.12Y38.32
M16
G05
G00X72.22Y29.68
M15
G01X73.12Y29.68
M16
G05
G00X72.22Y24.32
M15
G01X73.12Y24.32
M16
G05
G00X72.22Y15.68
M15
G01X73.12Y15.68
M16
G05
G00X76.55Y38.32
M15
G01X77.15Y38.32
M16
G05
G00X76.55Y29.68
M15
G01X77.15Y29.68
M16
G05
G00X76.55Y24.32
M15
G01X77.15Y24.32
M16
G05
G00X76.55Y15.68
M15
G01X77.15Y15.68
M16
G05
T0
M30
